<?xml version="1.0" encoding="UTF-8"?>
<svg id="Capa_2" data-name="Capa 2" xmlns="http://www.w3.org/2000/svg" viewBox="0 0 860.48 366.13">
  <defs>
    <style>
      .cls-1 {
        fill: #aa8847;
      }
    </style>
  </defs>
  <g id="Capa_1-2" data-name="Capa 1">
    <path class="cls-1" d="m792.29,163.47s-11.28-7.53-24.56,5.68c-13.27,13.21-37.85,39.72-37.85,39.72,0,0-6.2-4.72-13.09,1.97-6.89,6.69.59,17.32.59,17.32,0,0-14.61,12.69-27.62,8.64-13.01-4.05-8.55-15.32-7.1-21.36,1.45-6.03,8.87-21.07,8.87-21.07,0,0-7.29,25.97.87,28.77,8.16,2.8,17.44-5.09,17.69-6.61.25-1.52-9.31-3.04-9.49-9.32-.15-5.24,10.48-9.22,14.05-12.21,7.2-6.01,8.81-12.27,3.4-20.12-4.82,1.18-16.12,8.08-16.12,8.08,0,0,34.59-26.08,56.1-36.04,21.1-9.77,29.28-25.92,33.33-46.63,4.04-20.72,34.5-15.08,24.91-23.89-9.6-8.81-81.11,3.88-87.85,30.43-8.66-22.26-38.5-4.26-42.79,9.18-4.29,13.44,9.98,26.91,6.44,43.04-3.54,16.13-15.38,21.21-15.38,21.21,0,0-42.06-49.99-58.12-56.3-16.06-6.32-27.58,15.46-28.35,37.1-.77,21.64,17.05,27.47,10.19,39.21,1.6,1.19,23.12,2.92,26.54-12.24,3.42-15.16-4.67-26.43,3.66-27.57,8.33-1.14,26.45,18.21,26.45,18.21,0,0-.2,1.53-4.46,3.06-4.26,1.54-6.09,16.36-4.01,18.18,2.08,1.82,6.7,4.94,2.67,10.71-6.99,10.01-28.41,15.77-39.08,13.6-23.96-4.86-28.36-11.24-32.89-23.82-2.31-6.4,4.84-9.92,8.04-19.97,3.2-10.05-11.37-30.42-11.37-30.42,0,0-16.52,9.58-20.86,22.17-4.35,12.6,8.39,18.68,5.07,25.15-3.33,6.46-36.61,14.45-55.69,13.25-23-1.44-39.1-8.35-48.67-23.38,2.52-.3,4.82-.79,6.37-1.59,5.75-2.98-2.65-12.4-2.65-12.4,6.96-4.52-.95-12.89-.95-12.89,1.87-8.72,20.76-19.17,34.22-19.22,13.46-.05,9.91,14.8,5.91,29.06-4,14.27,32.47,26.82,32.47,26.82-10.74-20.73,8.87-24.75,14.25-45.04,5.38-20.29-15.2-43.93-43.91-39.37-28.71,4.56-53.17,28.05-58.48,39.86-.68,1.51,1.82-15.96,9.04-27.72,7.22-11.76,34.11-21.48,49.98-41.49,15.87-20-16.94-42.31-25.78-32.23,3.6-22.06-41.61-35.05-46.01-51.01-4.41,15.96-49.62,28.96-46.01,51.01-8.84-10.09-41.65,12.23-25.78,32.23,15.87,20,42.76,29.73,49.98,41.49,7.22,11.76,9.72,29.23,9.04,27.72-5.31-11.8-29.78-35.3-58.49-39.86-28.71-4.55-49.29,19.08-43.91,39.37,5.38,20.29,25,24.31,14.26,45.04,0,0,36.47-12.54,32.46-26.82-4-14.27-7.56-29.11,5.9-29.06,13.46.05,32.35,10.5,34.22,19.22,0,0-7.91,8.37-.94,12.89,0,0-8.4,9.42-2.65,12.4,1.55.8,3.85,1.29,6.37,1.59-9.56,15.03-25.66,21.94-48.67,23.38-19.09,1.19-52.37-6.79-55.7-13.25-3.33-6.47,9.42-12.55,5.07-25.15-4.35-12.59-20.87-22.17-20.87-22.17,0,0-14.57,20.36-11.37,30.42,3.2,10.05,10.35,13.58,8.04,19.97-4.53,12.58-8.93,18.96-32.89,23.82-10.67,2.16-32.09-3.59-39.08-13.6-4.03-5.77.59-8.9,2.67-10.71,2.07-1.82.25-16.64-4.01-18.18-4.26-1.54-4.46-3.06-4.46-3.06,0,0,18.12-19.35,26.45-18.21,8.33,1.14.24,12.41,3.66,27.57,3.42,15.16,24.94,13.43,26.54,12.24-6.85-11.75,10.96-17.58,10.19-39.22-.77-21.64-12.29-43.41-28.35-37.1-16.06,6.31-58.12,56.3-58.12,56.3,0,0-11.84-5.08-15.38-21.21-3.54-16.13,10.72-29.61,6.43-43.05-4.29-13.44-34.14-31.44-42.8-9.18-6.74-26.55-78.26-39.24-87.86-30.43-9.6,8.81,20.86,3.17,24.91,23.89,4.04,20.72,12.22,36.86,33.33,46.64,20.4,9.44,47.25,18.08,58.19,36.81-3.14-1.67-19.4-12.66-22.6-11.03-3.82,1.94-.11,10.61.94,13.13,2.36,5.67,6.49,9.05,11.73,12.62,2.93,2,9.29,4.74,9.18,8.75-.18,6.28-9.74,7.8-9.49,9.32.25,1.52,9.53,9.41,17.69,6.61,8.16-2.8.87-28.77.87-28.77,0,0,7.43,15.04,8.88,21.07,1.45,6.03,5.91,17.3-7.1,21.36-13.01,4.05-27.62-8.64-27.62-8.64,0,0,7.48-10.63.59-17.32-6.89-6.69-13.09-1.97-13.09-1.97,0,0-24.57-26.52-37.85-39.72-13.27-13.21-24.56-5.68-24.56-5.68C48.44,137.53-.87,149.73.01,158.52c.52,5.14,12.59,6.23,32.01,11.57,2.69,3.26,8.33,6.93,15.46,9.8,8.37,3.37,16.41,4.68,20.89,3.66,4.64,2.22,9.39,4.65,14.31,7.47,46.85,26.96,41.83,26.23,41.83,26.23,0,0,3,10.45,5.03,12.19-4.22,5.44,13.87,24.26,17.5,25.74,3.63,1.48,8.87-.94,8.87-.94.72,4.47,1.09,6.71,1.81,11.19-14.42,3.36-13.29,16.98-.39,17.19,4.1,25.03,6.14,37.55,10.24,62.59,0,0-9.82,3.53-5.27,10.79,2.96,4.73,7.6,3.44,7.6,3.44.22,2.68.33,4.01.56,6.69,174.19-25.97,345.55-25.98,519.73.01.23-2.68.34-4.01.57-6.69,0,0,4.55,1.27,7.47-3.46,4.49-7.27-5.14-10.77-5.14-10.77,4.1-25.05,6.15-37.57,10.25-62.62,12.75-.31,13.81-13.83-.55-17.18.72-4.47,1.09-6.71,1.81-11.18,0,0,5.24,2.41,8.87.94,3.63-1.48,21.73-20.29,17.5-25.73,2.03-1.74,5.02-12.19,5.02-12.19,0,0-5.01.73,41.83-26.23,5.44-3.13,10.71-5.82,15.81-8.2,2.55,3.27,12.9,2.42,23.86-1.95,9.15-3.65,15.79-8.61,16.94-12.35,15.9-4.04,25.59-5.4,26.05-9.99.88-8.79-48.43-20.99-68.18,4.95Zm-43.91-51.78c8.76-10.19,21.22-14.93,27.63-10.64,6.41,4.29,4.25,15.91-4.61,25.98-8.86,10.07-20.97,14.88-27.28,10.7-6.31-4.18-4.5-15.86,4.26-26.04Zm-630.94,25.85c-6.31,4.18-18.42-.64-27.28-10.71-8.85-10.08-11-21.69-4.59-25.98,6.41-4.29,18.88.46,27.63,10.65,8.75,10.19,10.55,21.87,4.24,26.04Zm576.53,108.76c-2.46,6.49-3.68,9.75-6.11,16.25-7.23-1.3-16.66-2.93-27.66-4.68,1.57-.53.81-3.9,7.22-31.58-1.27,17.5,18.12,27.04,26.55,20.01Zm-2.4-54.52c-6.87.42-11.85-2.39-14.39-8.25,6.9-.5,11.89,2.39,14.39,8.25Zm-10.87,6.4c-6.84.47-11.8-2.32-14.36-8.16,6.87-.55,11.85,2.32,14.36,8.16Zm-111.15,9.71c18.37,30.33,63.88,39.21,88.05,10.84,0,0-14.51,33.95-14.7,35.49-.05.43,1.09.93,2.78,1.41-68.55-10.21-137.79-16.05-207.07-17.65.72-20.22,1.1-30.33,1.86-50.55,23.72,42.02,91.76,43.23,129.08,20.46Zm-164.93-138.05c-.19-13.65,11-24.88,24.98-24.89,13.98,0,25.17,11.22,25,24.87-.18,13.65-11.36,24.55-24.98,24.56-13.62,0-24.81-10.89-25-24.54Zm39.7,89.77c-10.26,3.7-20.65,3.68-30.93.02,10.2-3.85,20.72-3.89,30.93-.02Zm-.11,14.7c-10.18,3.7-20.48,3.68-30.67.02,10.12-3.85,20.55-3.89,30.67-.02Zm-153.31,33.58c36.82,20.81,106.93,23.57,129.08-20.46.76,20.22,1.14,30.33,1.86,50.55-69.29,1.6-138.53,7.45-207.08,17.66,1.69-.49,2.84-.98,2.78-1.41-.19-1.53-14.7-35.49-14.7-35.49,24.18,28.37,69.69,19.48,88.05-10.85Zm-99.8-17.46c-2.55,5.85-7.51,8.64-14.35,8.19,2.51-5.84,7.48-8.72,14.35-8.19Zm-25.23,1.8c2.49-5.86,7.47-8.77,14.38-8.28-2.53,5.86-7.5,8.69-14.38,8.28Zm27.17,34.06c6.41,27.68,5.65,31.05,7.22,31.58-11,1.75-20.44,3.37-27.66,4.68-2.43-6.5-3.65-9.75-6.1-16.25,8.43,7.03,27.82-2.51,26.55-20.01Zm-17.52,119.88c169.83-28.03,337.07-28.09,506.95-.4-169.68-20.87-337.3-20.66-506.95.4Zm1.18-33.89c-1.25-8.06.94-15.08,4.88-15.67,3.94-.59,8.1,5.48,9.27,13.55,1.18,8.07-1.01,15.06-4.89,15.64-3.87.58-8.02-5.46-9.27-13.52Zm39.27-6.16c-1.12-8.6,2.22-16.13,7.46-16.78,5.24-.65,10.33,5.83,11.35,14.44,1.02,8.61-2.33,16.09-7.47,16.73-5.15.64-10.22-5.79-11.34-14.39Zm51.62-6.09c-.9-9.15,3.68-17.09,10.23-17.69,6.55-.6,12.49,6.39,13.26,15.55.77,9.16-3.81,17.03-10.23,17.61-6.42.59-12.35-6.31-13.26-15.47Zm65.96-4.99c-.57-9.7,5.35-17.94,13.21-18.33,7.86-.39,14.57,7.22,14.97,16.93.4,9.71-5.52,17.83-13.21,18.21-7.7.38-14.4-7.11-14.96-16.81Zm82.22-2.2c-.09-10.24,7.27-18.61,16.44-18.6,9.17.01,16.51,8.4,16.39,18.64-.11,10.24-7.47,18.44-16.44,18.43-8.96-.01-16.3-8.24-16.39-18.47Zm86.87.96c.42-9.71,7.14-17.3,15.01-16.89,7.86.41,13.76,8.67,13.17,18.36-.59,9.7-7.3,17.18-15,16.77-7.7-.4-13.59-8.54-13.17-18.24Zm70.63,4.41c.79-9.16,6.75-16.13,13.3-15.52,6.55.61,11.11,8.57,10.19,17.72-.92,9.15-6.87,16.04-13.29,15.44-6.42-.6-10.99-8.47-10.19-17.64Zm56.29,6.03c1.04-8.61,6.14-15.08,11.38-14.41,5.24.66,8.56,8.2,7.42,16.8-1.14,8.6-6.23,15.01-11.38,14.36-5.15-.65-8.47-8.13-7.43-16.75Zm48.77,22.13c-3.87-.59-6.04-7.59-4.85-15.66,1.2-8.06,5.36-14.13,9.31-13.52,3.94.6,6.11,7.63,4.84,15.69-1.27,8.05-5.43,14.09-9.3,13.49Zm-514.89-56.3c177.59-29.39,353.33-29.46,530.99-.41-177.56-22.19-353.47-21.97-530.99.41Z"/>
  </g>
</svg>