<?xml version="1.0" encoding="UTF-8"?>
<svg id="Capa_2" data-name="Capa 2" xmlns="http://www.w3.org/2000/svg" viewBox="0 0 45.75 54">
  <defs>
    <style>
      .cls-1 {
        fill: #fff;
      }
    </style>
  </defs>
  <g id="Capa_1-2" data-name="Capa 1">
    <g>
      <path class="cls-1" d="m37.09,29.84V11.35c0-1.12-.91-2.02-2.02-2.02H10.68c-1.12,0-2.02.91-2.02,2.02v18.5H1.29c-1.14,0-1.72,1.38-.91,2.19l21.59,21.59c.5.5,1.32.5,1.82,0l21.59-21.59c.81-.81.24-2.19-.91-2.19h-7.37Z"/>
      <path class="cls-1" d="m34.5,0H11.25c-1.43,0-2.59,1.16-2.59,2.59h0c0,1.43,1.16,2.59,2.59,2.59h23.25c1.43,0,2.59-1.16,2.59-2.59h0c0-1.43-1.16-2.59-2.59-2.59Z"/>
    </g>
  </g>
</svg>