<?xml version="1.0" encoding="UTF-8"?>
<svg id="Capa_2" data-name="Capa 2" xmlns="http://www.w3.org/2000/svg" viewBox="0 0 89.56 54">
  <defs>
    <style>
      .cls-1 {
        fill: #b91c1c;
      }
    </style>
  </defs>
  <g id="Capa_1-2" data-name="Capa 1">
    <g>
      <path class="cls-1" d="m51.13,31.64h-12.69c-4.38,0-8.51,1.71-11.61,4.81-3.1,3.1-4.81,7.22-4.81,11.61v5.95h45.52v-5.95c0-4.38-1.71-8.51-4.81-11.61-3.1-3.1-7.22-4.81-11.61-4.81h0Z"/>
      <path class="cls-1" d="m44.78,26.75c7.37,0,13.37-6,13.37-13.37S52.16,0,44.78,0s-13.37,6-13.37,13.37,6,13.37,13.37,13.37h0Z"/>
      <path class="cls-1" d="m17.85,29.6c5.9,0,10.71-4.8,10.71-10.71s-4.8-10.71-10.71-10.71-10.71,4.8-10.71,10.71,4.8,10.71,10.71,10.71Z"/>
      <path class="cls-1" d="m24.44,33.39c.1-.1.21-.2.31-.3-.67-.11-1.37-.17-2.07-.17h-9.66c-7.18,0-13.02,5.84-13.02,13.02v4.53h18.06v-2.41c0-1.1.1-2.2.29-3.29h0c.4-2.25,1.19-4.41,2.35-6.37l.6-1.02h.02c.86-1.43,1.91-2.77,3.12-3.99h0Z"/>
      <path class="cls-1" d="m76.54,32.92h-9.66c-.7,0-1.4.06-2.07.17.1.1.21.2.31.3.88.88,1.68,1.83,2.37,2.83l1.28,2.17c1.16,1.97,1.96,4.12,2.35,6.37h0c.19,1.09.29,2.19.29,3.29v2.41h18.15v-4.53c0-7.18-5.84-13.02-13.02-13.02h0Z"/>
      <path class="cls-1" d="m71.71,29.6c5.91,0,10.71-4.8,10.71-10.71s-4.8-10.71-10.71-10.71-10.71,4.8-10.71,10.71,4.8,10.71,10.71,10.71Z"/>
    </g>
  </g>
</svg>