<?xml version="1.0" encoding="UTF-8"?>
<svg id="Capa_2" data-name="Capa 2" xmlns="http://www.w3.org/2000/svg" viewBox="0 0 55.96 54">
  <defs>
    <style>
      .cls-1 {
        fill: #b91c1c;
      }
    </style>
  </defs>
  <g id="Capa_1-2" data-name="Capa 1">
    <g>
      <path class="cls-1" d="m41.11,8.54h-.03s-.02-.01-.02-.01c.04-.18-.08-.35-.17-.4-.13-.07-.31-.08-.45-.16-.01,0-.04.04-.07.06-.06-.04-.13-.08-.19-.11-.06-.32-.25-.46-.44-.32-.04-.02-.08-.05-.13-.07,0-.25.04-.54-.39-.44-.13.03-.16-.12-.19-.21-.06-.18-.16-.28-.36-.28-.17,0-.2-.12-.19-.26.01-.17-.03-.33-.12-.48-.11-.17-.28-.24-.47-.26-.16-.02-.21.09-.24.23-.01.08-.09.09-.15.07-.15-.05-.31-.04-.44-.15-.15-.13-.31-.18-.53-.18-.21,0-.57.09-.58-.33,0-.1-.12-.06-.18-.09-.43-.24-1.04-.02-1.36-.53-.02-.03-.1-.03-.15-.03-.32-.02-.63-.06-.95-.06-.22,0-.39-.05-.44-.3-.01-.07-.06-.14-.12-.13-.23.07-.41-.12-.63-.08-.32.06-.58-.05-.8-.31-.21-.24-.67-.19-.83.08-.07.12-.13.09-.23.07-.32-.06-.64-.1-.96-.15-.41-.07-.83,0-1.24-.03-.75-.04-1.5,0-2.26-.03-.15,0-.3-.01-.43.06-.18.09-.34.05-.51-.04-.17-.09-.34-.26-.47.06-.03.08-.15.05-.23.04-.1-.01-.19.01-.29.03-.23.04-.43.19-.63.21-.41.04-.82.02-1.22.14-.23.06-.55-.15-.67.24,0,.02-.08.02-.12.02-.27.05-.55.1-.81.16-.25.06-.53.02-.75.15-.31.19-.62.31-.98.33-.23.01-.5.05-.65.25-.2.29-.47.31-.77.31-.07,0-.11.04-.14.11-.02.04-.06.08-.09.03-.14-.22-.14-.08-.16.05-.02.14-.14.19-.24.22-.16.05-.33.05-.49.09-.1.03-.27.02-.27.17,0,.37-.25.37-.47.31-.3-.08-.43.07-.53.29-.04.09-.07.17-.18.17-.33.02-.37.23-.34.49,0,0,0,0,0,0-.3-.1-.55.19-.85.09-.04-.01-.08.03-.08.07-.01.21-.16.2-.31.22-.22.03-.36.17-.45.39-.11.27-.29.51-.58.61-.36.13-.83.14-.75.73,0,.06-.07.09-.11.05-.23-.19-.38-.18-.43.15,0,.03-.09.05-.13.08-.13.13-.4.18-.27.48.03.06-.06.12-.13.16-.28.16-.58.36-.61.69-.03.4-.29.37-.51.34-.24-.03-.29.07-.27.25.03.16-.02.26-.16.33-.07.04-.14.11-.14.2.02.24-.19.24-.32.32-.05.03-.16-.05-.24-.03-.16.04-.45-.04-.4.24.07.38.17.73-.19,1.03-.09.07-.12.2-.11.32.02.23-.02.39-.3.39-.06,0-.13.05-.13.12-.03.39-.36.62-.5.93-.14.32-.15.68-.51.86.09.39-.43.6-.29,1.01.01.04-.06.13-.12.17-.18.16-.21.51-.06.73-.01.02-.03.03-.04.05-.09.18-.37.08-.43.27-.08.32-.28.58-.35.91-.12.57-.29,1.13-.29,1.72,0,.2-.07.25-.26.25-.61.01-.64.01-.72.6-.05.37,0,.75,0,1.12.11-.19.16-.37.21-.56.03-.12.07-.29.22-.24.11.03.13.18.13.34,0,.54-.27,1.02-.23,1.56.03.49-.14.98,0,1.48-.24.22-.11.51-.14.76-.04.25-.09.5-.07.74.05.68.24,1.35.12,2.04-.02.09.04.17.11.21.13.08.14.19.13.32-.02.41-.04.83-.06,1.24-.01.24.09.43.23.63.22.31.43.64.35,1.08-.07.4-.05.84.15,1.19.14.25.16.44.07.7-.07.21-.13.48-.06.67.06.15.35.1.54.14.01,0,.02,0,.03,0,.19.03.29.11.28.33-.01.27.07.52.23.76.15.23.27.52.3.79.02.17.05.18.18.19.11,0,.3-.05.28.15-.05.5.32.83.45,1.26.04.14.15.25.07.41-.02.05,0,.12.06.12.33,0,.45.23.54.48.12.31.5.5.41.92-.03.12.1.22.26.15.08-.03.18-.05.21.06.08.31.31.58.16.96-.13.32-.02.38.32.41.2.02.47-.16.58.06.09.18.02.43.01.65,0,.05-.04.1-.04.15,0,.17.09.28.25.24.2-.05.4,0,.59-.05.17-.05.28.03.36.11.08.09-.03.19-.09.27-.16.2-.13.41.01.57.12.14.32.16.52.07.4-.18.49-.11.49.34q0,.65.64.54s.06-.01.09-.02c.22-.05.61.21.65.44.03.2.15.36.33.24.22-.16.31.03.41.11.08.06.15.17.22.25.2.24.52.28.75.51.24.23.67.22.87.57.02.03.09.04.14.05.18.07.37.07.56.06.17-.01.26.04.25.22-.01.2.07.24.29.25.3.01.61.08.81.35.08.11.13.16.3.14.46-.05.57.06.63.49,0,.06.03.12.05.18.04.13-.04.38.16.35.24-.03.56.09.72-.17.16-.26.36-.21.48-.06.16.2.31.18.51.13.07-.02.15,0,.22,0,.37.07.74.13,1.12.11.14,0,.24.05.36.13.25.17.46.45.85.37.27-.05.56.02.82-.04.22-.05.39-.05.59.04.08.03.17.02.16.14-.01.14-.13.11-.22.12-.21,0-.42,0-.63,0-.06,0-.13.01-.13.1,0,.06.05.08.11.09.29.02.56.09.87.03.32-.06.66-.13.99-.09.23.03.5.05.63.27.09.15,0,.46.35.28,0,0,.04.04.04.07,0,.3.15.58.13.88-.02.42-.03.82-.57.99-.21.07-.6.17-.52.59.01.06-.09.07-.15.07-.16,0-.31,0-.47,0-.12,0-.24,0-.24.17-.07,0-.14.02-.2-.03-.13-.26-.33-.14-.51-.08-.02,0-.05,0-.07,0,.16-.14.03-.28-.07-.27-.33.01-.34-.22-.39-.43-.07-.29-.23-.35-.68-.29-.25.03-.24.23-.25.4,0,.07.05.18-.07.15-.26-.06-.51-.13-.77,0-.02,0-.07-.01-.08-.03-.14-.3-.48-.2-.69-.34-.37-.23-.78-.16-1.17-.23-.27-.05-.33-.16-.29-.39.03-.2.1-.4-.11-.54-.13-.09-.76-.05-.84.06-.19.27-.41.19-.59.04-.16-.13-.34-.14-.52-.15-.4-.02-.85.08-1.09-.39-.05-.09-.14-.08-.21-.11-.22-.08-.48-.11-.65-.28-.21-.2-.44-.3-.73-.27-.17.02-.26-.04-.25-.22,0-.16-.09-.21-.24-.22-.25-.01-.55-.06-.7-.22-.3-.31-.63-.36-1.01-.34,0,0,0,0,0,0-.04-.15-.03-.38-.12-.44-.34-.22-.21-.37.03-.55-.25.07-.48-.01-.71-.02-.17,0-.29-.02-.27-.23.01-.13-.07-.22-.19-.26-.21-.07-.41-.16-.63-.19-.25-.04-.24-.24-.27-.4-.02-.08.05-.18.06-.27.07-.57,0-.69-.51-.65-.07,0-.15,0-.22,0-.19.02-.26-.05-.26-.25-.01-.56-.28-.79-.83-.74-.14.01-.17-.02-.17-.14,0-.1,0-.21,0-.31,0-.45-.13-.57-.58-.58q-.42,0-.42-.42c0-.05,0-.1,0-.16,0-.37-.06-.45-.44-.42-.3.02-.59.11-.9,0-.05-.02-.12.04-.17.06-.33-.35-.57-.76-.87-1.14,0-.07.04-.11.11-.12.09-.01.24.03.22-.13-.02-.16-.16-.22-.3-.17-.12.04-.22.02-.33-.01-.52-.75-.97-1.54-1.41-2.33-.44-.78-.8-1.58-1.15-2.4-.23-.53-.48-1.05-.59-1.62-.01-.15.16-.09.22-.18-.18-.03-.17-.31-.4-.26-.43-1.21-.7-2.47-.95-3.73-.04-.18.01-.37-.06-.55.02-.03.05-.05.05-.08-.08-.43-.04-.87-.06-1.31,0-.12-.09-.12-.18-.13,0-.06,0-.13-.01-.19.13-.15.16-.31.14-.51-.06-.66-.13-1.32-.15-1.99,0-.17.11-.31.09-.47-.07-.66.02-1.31.09-1.96.04-.34.06-.69-.03-1.03,0-.03,0-.06,0-.09.28.02.15-.23.2-.34.1-.21.3-.4.27-.63-.06-.59.08-1.16.22-1.72.06-.24.26-.41.22-.72-.03-.27.16-.55.14-.85,0-.08-.01-.16.05-.23.29-.31.48-.65.45-1.09-.01-.17.05-.32.28-.26.09.02.18-.01.15-.09-.09-.22.02-.41.01-.61,0-.24.06-.38.28-.4.2-.02.24-.16.26-.3.03-.19.02-.39.02-.59,0-.26.11-.44.36-.5.11-.03.12-.08.08-.15-.21-.34.08-.49.25-.67.14-.14.26-.29.31-.49.01-.06.01-.14.05-.17.27-.2.34-.51.43-.81.05-.17.11-.26.29-.23.07,0,.22,0,.18-.1-.13-.37.1-.54.32-.75.1-.09.18-.23.23-.36.05-.12.11-.2.23-.27.28-.14.29-.2.13-.52.05,0,.1-.02.15-.02.24,0,.48.01.48-.34,0-.1.07-.16.19-.17.21-.01.37-.06.25-.34-.04-.1-.01-.29.08-.34.4-.22.44-.79.92-.93.04-.01.08-.07.09-.12.01-.14.12-.21.22-.24.31-.1.33-.3.25-.57,0,0,0,0,0,0,.25.07.44.09.62-.2.17-.28.49-.4.85-.37-.11-.09-.25-.15-.2-.27.04-.11.19-.11.3-.12.03,0,.06,0,.09,0,.2.02.32-.04.36-.25.03-.21.17-.31.37-.31.12,0,.18-.06.16-.18-.04-.27.15-.3.32-.3.14,0,.19-.01.19-.15,0-.25.14-.31.37-.32.31,0,.57-.11.65-.45.02-.06.04-.17.13-.15.26.07.38-.09.5-.26.09-.12.22-.12.36-.15.17-.03.41.04.49-.17.09-.25.25-.31.5-.34.17-.02.41.04.52-.2.15-.32.42-.46.77-.4.13.02.17,0,.18-.12.02-.24.17-.3.39-.28.13.02.27,0,.41,0,.13,0,.21-.01.29-.16.09-.18.26-.31.52-.24.24.07.42-.26.68-.14,0,0,.02-.05.04-.08.19-.25.39-.41.75-.41.28,0,.57-.06.86-.11.04,0,.1-.02.11-.04.16-.33.53-.23.78-.38.34-.2.76.04,1.13-.08.18-.06.41.12.53-.13.09-.2.23-.26.45-.25.28.02.57.03.84-.07.25-.09.5-.03.75-.06.4-.04.84.16,1.2-.18.04-.04.16-.04.2,0,.11.08.22.06.33.06.63,0,1.27,0,1.9,0,.45,0,.9-.03,1.34.05.32.06.66.16.96-.06.6,0,1.17.18,1.75.27-.03.16-.1.34.2.25.1-.03.17.02.24.09.19.19.44.32.71.33.68,0,1.33.2,2,.25.11,0,.31.03.34.28.04.34.42.58.78.61.28.02.59-.12.82.16.04.05.13-.03.18-.01.32.07.78-.14.89.4.01.06.04.05.08.05.32,0,.54.22.73.41.17.17.31.21.51.13.17-.06.57.1.55.23-.04.25.14.24.26.25.24,0,.41.11.58.27.15.15.26.39.54.32.05-.01.1.05.09.1-.04.31.06.46.39.34.02,0,.06.02.08.05.17.25.54.16.7.43.03.05.06.01.1,0,.26-.06.39.08.3.32-.06.16-.12.25.15.2.26-.05.53-.07.69.26.08.16.25.31.48.3.09,0,.11.06.13.14.13.43.37.77.85.86.13.02.14.09.15.19.04.37.36.69.73.78.15.04.45.01.31.35-.02.05.06.08.1.1.14.05.27.11.42.09,0,0,0,0,0,0-.05.41.04.51.47.52,0,0,.01.01.01.01-.09.21.02.28.21.28,0,0,0,0,0,0-.06.22.21.82.41.83.14,0,.17.29.34.11.02.02.04.04.06.06-.11.22-.05.52.13.66.03.02.05.07.05.1,0,.31.36.48.28.82-.02.09.13.13.22.11.22-.04.27.1.29.27.02.13.06.2.18.29.22.15.38.4.33.69-.03.17.02.18.16.2.25.03.31.22.36.45.04.2-.1.47.08.59.23.16.36.41.39.61.06.35.48.31.51.61.05-.02.09-.04.14-.07.02.06.1.11.06.19-.06.01-.12.04-.1.12.03.09.11.07.17.07.15.25.24.53.32.82-.06.21-.08.41.18.5.15.19.16.42.23.64-.1.3-.07.62.07.88.14.25.01.53.19.79.24.35.29.81.25,1.24-.01.15-.12.25-.29.19-.17-.06-.2.02-.2.16,0,.18,0,.36,0,.53,0,.12.05.21.18.21.27,0,.53.11.81.07,0,.06.01.12.02.19-.07.19-.15.39.11.51.02.25.04.51.06.76-.07.07-.07.13.02.18.08.48.12.97.12,1.46,0,.27.06.42.37.37.1-.02.21,0,.31.02,0,.14.08.18.21.17.18,0,.36,0,.53,0,.1,0,.19,0,.21.13.01.12,0,.22-.15.26-.18.05-.35.05-.52.02-.23-.04-.39.08-.32.31.14.45-.08.89-.01,1.34.02.12-.07.19-.18.23-.31.11-.48.4-.73.58-.08.06-.11.13-.09.22.03.23-.06.38-.26.48-.09.05-.16.13-.23.21-.04.05,0,.18-.11.14-.1-.03-.1-.12-.06-.21.04-.13-.03-.18-.14-.19-.11-.01-.19.04-.2.15,0,.09-.01.2.03.28.18.33-.07.64-.04.96,0,.05-.04.1-.07.08-.27-.1-.28.14-.36.28-.09.15-.26.19-.33.08-.1-.14-.24-.27-.24-.49,0-.41-.21-.53-.59-.37,0,0,0-.01,0-.01.06-.58.04-.6-.37-.55,0,0-.01-.01-.01-.01-.03-.59-.03-.59-.3-.5,0,0,0,0,0,0,.04-.23-.13-.31-.28-.4,0,0,0,0,0,0,0-.07.01-.15,0-.22-.04-.23-.08-.45-.4-.41-.1,0-.09-.07-.1-.13-.05-.31.3-.71-.21-.92-.07-.03-.04-.13-.04-.2-.03-.5-.1-.59-.59-.71-.09-.02-.25-.03-.16-.18.08-.14.04-.28.05-.42.53-.07,1.07-.02,1.6-.04.05,0,.11,0,.16.01,0,0,.02,0,.03.01,0,0-.02,0-.03-.01.07-.22.21-.46-.15-.56-.03-.07-.03-.13,0-.2.03-.06.05-.11.08-.17.15-.27.06-.87-.17-1.08-.08-.07-.09-.15-.07-.25.07-.01.19.02.17-.11-.02-.13-.14-.07-.23-.08,0-.02,0-.04,0-.06.09-.44-.06-.84-.2-1.24,0-.01-.04-.01-.06-.02-.03-.06.04-.07.05-.11,0-.16-.05-.33.02-.49-.22-.1-.19-.31-.2-.48-.03-.35-.08-.7-.03-1.04.03-.25-.08-.37-.22-.51-.21-.22-.38-.45-.26-.79.08-.24-.08-.47-.13-.7-.02-.08-.1-.1-.15-.07-.29.18-.21-.06-.22-.19,0-.08-.04-.16-.06-.24-.08-.3-.13-.6-.25-.89-.04-.1,0-.21.11-.27.16-.08.15-.21.11-.35-.03-.09-.05-.18-.01-.27.08-.21-.05-.26-.22-.26-.17,0-.34.02-.5,0-.19-.03-.39-.09-.23-.36.06-.1.06-.18-.08-.2-.1-.01-.13-.09-.17-.16-.11-.18-.24-.35-.42-.46-.27-.17-.33-.4-.3-.69,0-.06.02-.16-.04-.17-.29-.06-.2-.28-.19-.45,0-.21-.06-.33-.26-.4-.24-.09-.55-.12-.56-.49,0-.04-.05-.11-.09-.12-.25-.08-.39-.21-.37-.49,0-.02-.06-.08-.08-.07-.38.16-.42-.1-.44-.37,0-.04-.03-.09-.06-.11-.3-.18-.46-.6-.91-.56-.09,0-.18-.09-.21-.17-.07-.19-.2-.21-.37-.19,0,0,0,0,0,0,.02-.29-.18-.34-.4-.37-.02-.01-.03-.03-.05-.04.04-.21-.09-.23-.25-.22-.02-.02-.04-.04-.06-.05.14-.25,0-.38-.2-.51-.3-.18-.6-.36-.95-.44ZM3.38,30.58c.22-.31.13-.58.13-.84,0-.04-.04-.07-.09-.06-.06.01-.08.06-.08.11,0,.23-.03.47.04.79ZM17.71,2.33c-.02.1.05.12.1.14.16.07.3-.01.43-.09.02,0,.03-.07.02-.08-.12-.09-.25-.05-.38,0-.06.02-.12.03-.17.04Zm30.76,8.64c-.12-.07-.18-.03-.27.08.11-.03.19.03.27-.08Zm-5.41-1.33c0-.06-.03-.07-.06-.05-.03.01-.05.03-.07.05.02.02.04.06.05.06.03-.01.06-.04.08-.05ZM28.95.31s-.07-.02-.1-.02c-.02,0-.04.01-.05.02.02.05.07.03.1.03.01,0,.02-.02.05-.04Zm14.56,9.82s-.05-.04-.07-.05c0,.02-.03.04-.02.05.02.02.04.04.06.06,0-.02.02-.03.03-.06Zm10.19,15.65s-.03.04-.02.05c0,.01.03.02.05.02,0-.02.03-.04.02-.05,0-.01-.03-.02-.05-.02ZM4.27,13.52s.02-.03.03-.05c-.02,0-.03,0-.05,0,0,0-.01.02-.01.02.01.01.02.02.04.03Z"/>
      <path class="cls-1" d="m7.7,27.21c-.03-.08-.03-.17,0-.25.17-.31.14-.64.12-.97,0-.01-.05-.02-.08-.03-.04-.1-.02-.21,0-.31.23-.14.13-.32.06-.5,0-.08,0-.17,0-.25.17-.17.24-.39.24-.63,0-.09.05-.22-.11-.25,0-.06,0-.13,0-.19.17-.16.22-.34.13-.56-.02-.27.1-.51.15-.76.17-.8.42-1.58.73-2.33.29-.05.11-.29.18-.44.01-.05-.01-.11.06-.13.31,0,.15-.24.19-.38.07-.38.28-.7.44-1.03.1-.2.22-.4.32-.6.41-.03.56-.11.56-.48,0-.38.19-.54.47-.69.03-.02.06-.06.09-.09,0,0,.02,0,.03.01,0,0-.02,0-.03-.01-.06-.25.26-.3.28-.56,0-.12.08-.3.09-.45l.25-.31c.35.12.46.05.47-.28,0-.09.01-.21.15-.18.12.03.24-.06.37.03-.1-.32,0-.59.17-.55.33.08.29-.13.27-.3-.01-.11.02-.15.1-.19.28-.16.38-.57.8-.55.05,0,.11-.16.17-.24.03-.05.05-.15.09-.15.28-.04.15-.21.13-.35.44-.42.97-.75,1.45-1.13.36.13.38.12.51-.3.13-.16.31-.26.5-.33.34.14.41.1.38-.24.24-.15.48-.29.75-.39.25.15.52,0,.57-.3.02,0,.04-.01.06-.02l.06-.05c.44-.18.84-.43,1.31-.52.28-.12.6.05.9-.16.14-.1.36-.1.43-.32.04,0,.09,0,.13,0,.02.03.04.02.06,0,.18-.1.35-.21.57-.19.25.02.5.04.69-.19.04,0,.09,0,.13,0,.18.07.35.15.44-.12.72.04,1.4-.25,2.11-.21.11,0,.23,0,.34,0,.02.03.03.09.05.09.07.01.07-.05.08-.09.04,0,.08-.01.12-.02.01.06.01.14.1.12.08-.02.15-.06.15-.17.21-.04.42-.04.63,0,0,.14.04.24.19.19.16-.05.32-.06.48,0,.09.03.13-.02.14-.11.1,0,.21,0,.31,0,.13.22.29.14.45.04.17,0,.33.02.5.03.07.08.16.05.25.05.02,0,.04,0,.07,0,.14.29.34,0,.51.06.26,0,.51.04.75.12,0,.05-.13.12-.04.12.2,0,.4.16.61.01.02,0,.04,0,.05.01.02.03.04.04.06,0,.17.04.34.08.5.13.05.2.16.23.32.11.25,0,.46.14.69.19-.05.04-.09.07-.09.08.05-.1.23.41.28-.01.3.04.54.24.85.27.02,0,.02.07.04.1-.01.12.02.21.16.2.23-.02.41.11.6.2.11.06.21.08.31-.02.05.01.1,0,.12.07.14.16.03.29-.07.43.11.02.19-.01.27-.02.21-.01.5-.02.58.15.12.25.33.29.53.36.12.05.2-.03.21-.15.05.18.26.13.36.23-.06.14-.13.29.05.37.14.06.3.08.39-.1.07,0,.1.06.13.11.05.21.14.35.39.32.22.06.36.23.55.33-.01.16-.19.44.14.41.28-.02.28.12.34.28.04.11.06.29.23.23.23-.09.24.07.29.2.11.26.7.6.97.57,0,0,0,0,0,0-.02.16.02.25.15.38.17.17.51.28.4.64-.02.07.04.09.09.05.08-.05.13-.04.16.06.04.14.15.19.28.22.07.02.17.07.15.14-.14.36.34.33.38.59,0,.04.18.32.41.24,0,0,0,0,0,0-.02.13-.04.25.1.33.06.03.12.12.09.14-.26.18.03.21.08.25.19.11.17.38.37.48.02,0,.01.08,0,.11-.01.07-.08.16.02.18.1.03.17-.04.19-.15.23.2.32.49.45.74-.2.3.03.37.25.44.08.07.11.16.12.25-.11.28-.05.39.19.38.06.14.12.29.18.43-.11.32.08.74.36.83.15.3.25.62.33.94-.12.16-.09.27.11.32.01.02.02.04.01.06-.08.15-.11.28.11.32.03.06.09.11.06.19,0,0-.02.01-.02.02,0,.01.01.03.02.04.09.17.14.36.14.56-.03.1-.16.22.07.26.11.06.03.17.06.25-.09.12-.14.24.05.32.14.22.16.49.17.72.02.62.19,1.21.21,1.83,0,.15-.03.31-.04.46-.11.09-.05.12.05.13.06.38.07.75,0,1.13-.18.15-.19.26-.02.44.06.14-.07.25-.06.38-.2.17-.2.34,0,.5.06.22-.1.39-.11.6-.01.24-.05.48-.08.72-.19.07-.14.19-.06.31,0,.04,0,.09,0,.13-.11,0-.3.07-.26.12.16.16,0,.37.14.51-.07.32-.13.63-.2.95-.02.02-.03.04-.05.06,0,.02-.02.04-.02.06-.48,0-.58.12-.4.57.06.15.06.3.05.45-.03.41-.26.75-.38,1.14-.08.28-.25.54-.38.81-.16.02-.24.09-.13.25,0,.05,0,.1-.06.13-.08.01-.16.03-.06.13-.02.17-.11.31-.21.44-.22-.06-.26.15-.35.27-.06.08.06.1.11.13,0,.02,0,.03-.01.05-.16.05-.32.1-.16.31l-.06.06c-.29.05-.41.29-.5.52-.08.19-.17.32-.34.44-.14.09-.3.25-.06.43-.04.11-.11.18-.22.22,0-.03-.02-.06-.02-.09-.01,0-.02.01-.03.02.02.03.03.05.05.08h.03s0,.04,0,.04c-.34-.06-.33.14-.29.37-.17.25-.34.49-.56.69-.05,0-.1,0-.16,0-.26-.04-.41.04-.41.32,0,.1-.03.19-.15.2-.42.04-.37.36-.39.64,0,0,0,0,0,0-.32-.12-.4-.05-.4.35-.08.08-.1.23-.25.24-.01-.07.03-.19-.11-.15-.07.02-.22,0-.17.15.03.1-.04.17-.03.26-.06.11-.16.18-.26.24-.24-.13-.25.02-.24.2h0c-.18.04-.36.08-.55.12-.35.07-.39.14-.26.49,0,.02-.02.03-.05.03-.2,0-.38.04-.54.18-.2.04-.1.19-.13.3-.13-.03-.12.18-.25.14-.21-.25-.29-.26-.45.03-.1.19-.3.32-.43.31-.34-.04-.25.17-.26.33-.03.11-.13.04-.19.08-.31-.1-.51.18-.78.23-.2.03-.4.12-.41.39-.02,0-.04,0-.06,0-.01-.02-.03-.05-.04-.07,0,.03-.01.06-.02.09-.08.09-.19.14-.32.12-.15-.05-.31,0-.46-.02-.28-.03-.35.11-.36.33l-.88.31c-.46-.25-.74.1-1.07.31-.08,0-.17,0-.25.01-.03,0-.06,0-.09,0-.35-.01-.7.11-1.06.03-.11-.02-.24.08-.23.24-.06.04-.11.05-.18.02-.04-.09-.12-.15-.22-.13-.06.02-.04.1-.05.16-.5.05-.99.13-1.49.16-.94.05-1.88.03-2.82-.07-.45-.05-.93,0-1.36-.12-.56-.15-1.13-.23-1.69-.38-.78-.21-1.57-.44-2.31-.75-1.01-.42-1.99-.91-2.92-1.49-1.5-.94-2.87-2.04-4.07-3.34-.79-.85-1.49-1.78-2.13-2.76-.04-.05-.1-.11-.08-.2,0-.26,0-.5-.34-.53,0,0,0-.01,0-.01-.1-.16.18-.46-.19-.52,0,0,0-.04,0-.06.07-.16-.06-.3-.13-.35-.25-.2-.34-.43-.16-.78-.15.08-.22.13-.3.17-.08-.01-.05-.08-.06-.13.14-.08.27-.25.09-.32-.26-.11-.24-.33-.36-.49-.12-.15.01-.31-.1-.43-.18-.2-.22-.46-.3-.71-.27-.84-.48-1.7-.67-2.56-.06-.27-.03-.55-.21-.78-.01-.02,0-.04,0-.05.02,0,.03-.02.05-.03-.02,0-.04-.01-.05-.02-.05-.32-.09-.64-.14-.96.19-.11.19-.21,0-.31-.02-.17-.05-.33,0-.5.08-.24.14-.47-.03-.69Zm19.31,16.46c.62.09,1.21-.04,1.8-.17.97-.21,1.91-.51,2.84-.86,1.36-.51,2.64-1.15,3.83-1.98.9-.63,1.77-1.29,2.55-2.06.93-.92,1.77-1.9,2.54-2.96.38-.53.69-1.1,1-1.65.54-.96,1.01-1.96,1.33-3.02.26-.85.65-1.67.63-2.59,0-.05,0-.11.03-.15.13-.29.15-.61.15-.92.01-.88-.12-1.73-.36-2.58-.25-.87-.51-1.73-.84-2.58-.19-.48-.42-.94-.67-1.4-.19-.35-.32-.73-.55-1.05-.5-.72-.96-1.46-1.5-2.15-.39-.5-.84-.95-1.24-1.45-.31-.38-.73-.67-1.1-1.01-.38-.36-.79-.69-1.21-.99-.5-.36-1.02-.69-1.53-1.02-.89-.58-1.84-1.01-2.81-1.43-.92-.39-1.9-.64-2.87-.87-.72-.17-1.44-.33-2.19-.29-.24,0-.43.15-.67.14-.81-.06-1.55.31-2.31.48-.54.12-1.06.39-1.58.57-.85.3-1.65.72-2.43,1.15-.79.43-1.54.95-2.25,1.51-.45.36-.92.72-1.33,1.13-.37.36-.71.76-1.05,1.14-.63.7-1.2,1.45-1.74,2.21-.57.8-.98,1.68-1.42,2.56-.35.7-.64,1.43-.88,2.17-.26.78-.43,1.6-.57,2.42-.17,1.02-.12,2.02.13,3,.23.92.46,1.84.83,2.71.23.55.41,1.12.69,1.64.43.78.91,1.52,1.37,2.27.63,1.01,1.42,1.87,2.24,2.71.56.58,1.17,1.14,1.83,1.63.91.68,1.85,1.32,2.86,1.84.9.47,1.84.89,2.82,1.18.66.19,1.31.39,2,.51.54.1,1.07.28,1.62.21Zm-3.69-35.17c.23-.07.4.03.62-.15-.24,0-.41-.06-.62.15Zm-12.95,9.24s-.06-.04-.09-.05c0,.02-.02.04-.02.05,0,.02.02.04.02.05.02-.02.05-.03.09-.05ZM26.96,7.86s0-.05-.02-.05c-.01,0-.03.01-.05.02,0,.02,0,.05.02.05.01,0,.03-.01.05-.02Zm-9.07,2.38s-.03-.02-.05-.04c0,.02,0,.03,0,.05,0,0,.02.02.02.01.01,0,.02-.02.04-.03Z"/>
      <path class="cls-1" d="m24.65,53.98c0-.17.12-.17.24-.17.16,0,.31,0,.47,0,.06,0,.17,0,.15-.07-.08-.42.32-.53.52-.59.54-.17.54-.57.57-.99.02-.3-.14-.58-.13-.88,0-.02-.04-.07-.04-.07-.35.19-.26-.13-.35-.28-.13-.22-.4-.24-.63-.27-.34-.04-.67.03-.99.09-.3.06-.58-.01-.87-.03-.06,0-.11-.02-.11-.09,0-.08.07-.09.13-.1.21,0,.42,0,.63,0,.09,0,.2.02.22-.12.01-.12-.09-.11-.16-.14-.2-.09-.37-.09-.59-.04-.26.06-.56-.01-.82.04-.38.08-.6-.19-.85-.37-.12-.08-.22-.14-.36-.13-.38.02-.75-.04-1.12-.11-.07-.01-.15-.02-.22,0-.19.05-.35.07-.51-.13-.12-.15-.32-.2-.48.06-.16.26-.48.13-.72.17-.2.03-.12-.22-.16-.35-.02-.06-.04-.12-.05-.18-.06-.44-.17-.55-.63-.49-.16.02-.21-.03-.3-.14-.2-.27-.51-.34-.81-.35-.21,0-.3-.05-.29-.25.01-.19-.08-.24-.25-.22-.19.01-.38,0-.56-.06-.05-.02-.12-.02-.14-.05-.2-.35-.63-.34-.87-.57-.23-.22-.55-.26-.75-.51-.07-.09-.14-.19-.22-.25-.11-.08-.19-.26-.41-.11-.18.12-.3-.04-.33-.24-.04-.22-.43-.48-.65-.44-.03,0-.06.02-.09.02q-.63.11-.64-.54c0-.45-.1-.52-.49-.34-.2.09-.39.07-.52-.07-.15-.16-.17-.38-.01-.57.06-.08.18-.18.09-.27-.08-.08-.19-.17-.36-.11-.18.06-.39,0-.59.05-.16.04-.25-.07-.25-.24,0-.05.04-.1.04-.15,0-.22.07-.47-.01-.65-.11-.22-.38-.04-.58-.06-.35-.03-.45-.09-.32-.41.15-.38-.08-.65-.16-.96-.03-.11-.13-.1-.21-.06-.17.07-.29-.03-.26-.15.09-.42-.29-.6-.41-.92-.09-.25-.21-.48-.54-.48-.06,0-.09-.07-.06-.12.08-.16-.03-.27-.07-.41-.13-.43-.5-.76-.45-1.26.02-.2-.16-.14-.28-.15-.13,0-.16-.02-.18-.19-.04-.27-.15-.55-.3-.79-.16-.24-.24-.49-.23-.76.01-.22-.09-.3-.28-.33-.01,0-.02,0-.03,0-.19-.04-.48,0-.54-.14-.07-.19-.01-.46.06-.67.09-.26.08-.44-.07-.7-.2-.36-.22-.79-.15-1.19.07-.44-.13-.76-.35-1.08-.14-.2-.24-.38-.23-.63.02-.41.04-.83.06-1.24,0-.13,0-.25-.13-.32-.07-.04-.13-.12-.11-.21.12-.69-.07-1.36-.12-2.04-.02-.24.04-.5.07-.74.04-.26-.1-.55.14-.76-.14-.5.04-.99,0-1.48-.04-.55.24-1.03.23-1.56,0-.16-.03-.3-.13-.34-.15-.05-.19.12-.22.24-.05.19-.1.37-.21.56,0-.37-.04-.76,0-1.12.08-.58.11-.58.72-.6.18,0,.26-.05.26-.25,0-.59.17-1.15.29-1.72.07-.33.26-.59.35-.91.05-.2.34-.1.43-.27-.03.27-.17.51-.26.76-.34.98-.62,1.97-.83,2.98-.17.82-.28,1.65-.37,2.48-.14,1.27-.13,2.53-.1,3.8,0,.41.08.82.13,1.23.08.67.15,1.33.3,1.99.17.76.37,1.51.6,2.26.37,1.2.84,2.35,1.4,3.47.71,1.41,1.55,2.74,2.54,3.98.68.85,1.39,1.68,2.19,2.42.88.81,1.8,1.57,2.78,2.26.91.64,1.85,1.2,2.82,1.71,1.07.56,2.2.96,3.34,1.36.71.25,1.44.42,2.17.58.57.13,1.16.21,1.75.3.59.09,1.19.04,1.76.24.58.2.94.6,1.18,1.18.43,1.07-.41,2.26-1.32,2.48-.28.07-.56.04-.84.03Z"/>
      <path class="cls-1" d="m14.4,7.52c-.03-.26,0-.48.34-.49.12,0,.14-.08.18-.17.1-.22.23-.36.53-.29.22.06.48.05.47-.31,0-.15.16-.14.27-.17.16-.04.33-.04.49-.09.1-.03.22-.09.24-.22.02-.14.02-.27.16-.05.03.05.08,0,.09-.03.03-.06.06-.11.14-.11.3,0,.57-.02.77-.31.14-.2.42-.23.65-.25.36-.02.68-.15.98-.33.22-.13.5-.09.75-.15.26-.06.54-.11.81-.16.04,0,.11,0,.12-.02.12-.39.44-.17.67-.24.4-.11.81-.09,1.22-.14.21-.02.4-.17.63-.21.1-.02.18-.04.29-.03.08.01.2.04.23-.04.12-.32.3-.15.47-.06.16.08.33.13.51.04.14-.07.28-.06.43-.06.75.03,1.5,0,2.26.03.41.02.83-.04,1.24.03.32.05.64.09.96.15.1.02.16.05.23-.07.16-.26.62-.32.83-.08.22.26.48.36.8.31.22-.04.4.15.63.08.06-.02.1.06.12.13.04.25.21.29.44.3.32,0,.63.04.95.06.05,0,.13,0,.15.03.33.51.93.29,1.36.53.06.03.17,0,.18.09.01.42.37.33.58.33.22,0,.38.05.53.18.13.11.29.1.44.15.06.02.14,0,.15-.07.03-.14.07-.25.24-.23.19.02.36.09.47.26.09.15.14.3.12.48-.01.14.02.26.19.26.2,0,.3.1.36.28.03.09.07.24.19.21.42-.09.38.19.39.44-1.23-.73-2.48-1.4-3.8-1.95-.85-.35-1.72-.65-2.61-.89-1.33-.35-2.65-.68-4.03-.74-.85-.04-1.69-.19-2.54-.12-.9.07-1.81.11-2.71.23-.37.05-.75.07-1.09.16-.6.16-1.22.21-1.81.43-.4.14-.82.25-1.23.37-1.12.34-2.19.82-3.24,1.34-.72.35-1.41.75-2.08,1.17-.02,0-.04,0-.06,0Z"/>
      <path class="cls-1" d="m5.84,43.82c.06-.02.13-.07.17-.06.3.1.6.02.9,0,.38-.02.44.05.44.42,0,.05,0,.1,0,.16q0,.42.42.42c.46,0,.58.12.58.58,0,.1,0,.21,0,.31,0,.12.03.15.17.14.56-.05.82.18.83.74,0,.2.08.26.26.25.07,0,.15,0,.22,0,.51-.04.58.08.51.65-.01.09-.08.19-.06.27.03.16.02.36.27.4.21.04.42.12.63.19.12.04.2.13.19.26-.02.21.11.23.27.23.23,0,.46.09.71.02-.24.18-.37.33-.03.55.09.06.08.29.12.44-.58-.25-1.06-.66-1.56-1.03-.77-.58-1.51-1.19-2.22-1.85-1-.93-1.92-1.93-2.78-2.98-.02-.03-.03-.07-.05-.11Z"/>
      <path class="cls-1" d="m30.32.22c-.31.22-.65.12-.96.06-.45-.08-.9-.05-1.34-.05-.63,0-1.27,0-1.9,0-.11,0-.22.02-.33-.06-.05-.03-.17-.03-.2,0-.36.34-.8.14-1.2.18-.25.02-.5-.03-.75.06-.27.1-.56.08-.84.07-.22-.01-.36.05-.45.25-.12.24-.35.07-.53.13-.36.13-.79-.12-1.13.08-.25.15-.62.06-.78.38-.01.03-.07.03-.11.04-.29.05-.58.11-.86.11-.36,0-.56.16-.75.41-.02.02-.04.08-.04.08-.26-.12-.44.21-.68.14-.25-.07-.43.06-.52.24-.07.15-.16.17-.29.16-.14,0-.27.01-.41,0-.22-.03-.37.04-.39.28-.01.13-.06.14-.18.12-.35-.05-.61.08-.77.4-.11.23-.35.17-.52.2-.24.03-.4.08-.5.34-.08.21-.32.14-.49.17-.14.03-.27.02-.36.15-.12.17-.25.33-.5.26-.09-.02-.12.08-.13.15-.09.35-.34.45-.65.45-.22,0-.37.07-.37.32,0,.14-.05.16-.19.15-.17,0-.36.04-.32.3.02.11-.04.17-.16.18-.2,0-.34.11-.37.31-.03.21-.16.27-.36.25-.03,0-.06,0-.09,0-.11.02-.26.01-.3.12-.04.12.1.18.2.27-.37-.03-.68.09-.85.37-.17.29-.37.27-.62.2.77-.76,1.61-1.44,2.46-2.09.98-.75,2.03-1.42,3.11-2.01.65-.36,1.33-.7,2.01-1,.76-.34,1.54-.64,2.33-.92.32-.11.64-.24.98-.32.59-.14,1.16-.36,1.76-.48.69-.14,1.37-.3,2.07-.38.63-.07,1.26-.14,1.89-.23.22-.03.44-.01.66-.02,1.02-.05,2.03-.05,3.04.02.53.04,1.05.13,1.58.11.04,0,.08,0,.1.06Z"/>
      <path class="cls-1" d="m47.17,9.03c-.15.02-.29-.04-.42-.09-.05-.02-.13-.04-.1-.1.14-.34-.16-.31-.31-.35-.37-.09-.69-.41-.73-.78-.01-.1-.03-.17-.15-.19-.48-.08-.72-.42-.85-.86-.02-.08-.04-.15-.13-.14-.23.01-.4-.14-.48-.3-.16-.33-.43-.3-.69-.26-.26.05-.2-.05-.15-.2.09-.24-.04-.38-.3-.32-.04,0-.08.04-.1,0-.16-.27-.54-.18-.7-.43-.02-.02-.06-.05-.08-.05-.33.12-.43-.03-.39-.34,0-.05-.04-.12-.09-.1-.29.07-.39-.17-.54-.32-.16-.16-.33-.27-.58-.27-.11,0-.3,0-.26-.25.02-.13-.38-.29-.55-.23-.21.07-.34.04-.51-.13-.19-.19-.42-.41-.73-.41-.04,0-.07,0-.08-.05-.11-.54-.57-.33-.89-.4-.05-.01-.14.06-.18.01-.23-.28-.54-.14-.82-.16-.35-.03-.73-.26-.78-.61-.03-.25-.23-.28-.34-.28-.67-.05-1.32-.24-2-.25-.26,0-.51-.13-.71-.33-.07-.08-.15-.13-.24-.09-.3.1-.23-.09-.2-.25.48.04.92.2,1.39.3.96.2,1.89.51,2.81.84,1.09.38,2.15.86,3.17,1.4.77.41,1.56.81,2.28,1.3.93.63,1.85,1.29,2.71,2.03.84.72,1.63,1.48,2.4,2.27.12.13.22.27.34.41Z"/>
      <path class="cls-1" d="m43.02,10.17c.17-.02.3,0,.37.19.03.08.12.18.21.17.45-.04.61.38.91.56.03.02.06.07.06.11.02.27.05.52.44.37.02,0,.08.05.08.07-.03.28.12.42.37.49.04.01.09.08.09.12,0,.37.32.4.56.49.2.07.27.19.26.4,0,.17-.09.39.19.45.06.01.05.11.04.17-.03.29.03.53.3.69.18.11.31.27.42.46.04.07.07.15.17.16.14.02.14.09.08.2-.16.27.04.33.23.36.16.03.33,0,.5,0,.17,0,.3.05.22.26-.04.1-.01.18.01.27.04.14.04.27-.11.35-.11.06-.15.17-.11.27.12.29.17.59.25.89.02.08.05.15.06.24,0,.13-.07.37.22.19.05-.03.13,0,.15.07.05.23.21.46.13.7-.11.34.05.57.26.79.13.14.25.26.22.51-.04.34,0,.7.03,1.04.02.17-.01.38.2.48-.07.16-.02.33-.02.49-.19-.09-.14-.29-.18-.44-.29-1.16-.65-2.29-1.09-3.41-.62-1.57-1.43-3.04-2.36-4.44-.82-1.25-1.8-2.37-2.87-3.42-.1-.1-.2-.21-.3-.32Z"/>
      <path class="cls-1" d="m8.33,7.49c.09.26.06.47-.25.57-.1.03-.21.1-.22.24,0,.04-.05.11-.09.12-.48.14-.51.71-.92.93-.1.05-.13.25-.08.34.13.29-.04.33-.25.34-.12,0-.19.07-.19.17,0,.35-.24.34-.48.34-.05,0-.1.01-.15.02.15.32.15.37-.13.52-.13.06-.18.15-.23.27-.05.13-.13.27-.23.36-.23.2-.46.38-.32.75.04.11-.11.11-.18.1-.19-.03-.24.07-.29.23-.09.29-.15.6-.43.81-.04.03-.03.11-.05.17-.05.2-.17.35-.31.49-.18.18-.46.34-.25.67.04.07.03.12-.08.15-.26.06-.36.24-.36.5,0,.2,0,.39-.02.59-.02.14-.06.28-.26.3-.22.02-.28.16-.28.4,0,.2-.11.4-.01.61.03.08-.06.11-.15.09-.23-.06-.29.09-.28.26.03.44-.16.79-.45,1.09-.07.07-.06.15-.05.23.02.3-.17.58-.14.85.04.31-.16.48-.22.72-.14.56-.28,1.12-.22,1.72.02.23-.17.43-.27.63-.06.12.08.36-.2.34.05-.78.22-1.55.37-2.32.29-1.49.77-2.94,1.35-4.34.58-1.41,1.3-2.77,2.11-4.07,1.19-1.92,2.61-3.64,4.23-5.21Z"/>
      <path class="cls-1" d="m12.45,49.79c.38-.02.71.02,1.01.34.15.16.45.21.7.22.15,0,.25.06.24.22-.01.19.08.24.25.22.29-.03.52.07.73.27.17.17.43.2.65.28.08.03.17.02.21.11.24.47.69.37,1.09.39.19,0,.36.02.52.15.18.15.41.23.59-.04.08-.11.71-.15.84-.06.21.14.15.34.11.54-.04.23.02.34.29.39.39.07.8,0,1.17.23.21.13.55.03.69.34,0,.02.06.04.08.03.26-.13.51-.06.77,0,.11.03.06-.08.07-.15.01-.17,0-.36.25-.4.45-.06.61,0,.68.29.05.21.06.45.39.43.1,0,.23.13.07.27-.89-.05-1.77-.18-2.64-.39-.51-.13-1.03-.22-1.54-.37-.54-.15-1.08-.34-1.61-.52-1.31-.45-2.57-1.03-3.79-1.68-.63-.34-1.26-.67-1.83-1.12Z"/>
      <path class="cls-1" d="m5.45,18.42c-.15-.22-.12-.58.06-.73.05-.05.13-.13.12-.17-.14-.41.38-.62.29-1.01.36-.18.37-.54.51-.86.14-.31.47-.54.5-.93,0-.07.08-.12.13-.12.28,0,.32-.16.3-.39-.01-.11.02-.24.11-.32.36-.3.25-.65.19-1.03-.05-.28.24-.2.4-.24.07-.02.18.07.24.03.13-.07.34-.08.32-.32,0-.09.06-.16.14-.2.14-.07.19-.17.16-.33-.03-.18.02-.28.27-.25.23.03.48.06.51-.34.03-.33.33-.52.61-.69.07-.04.16-.09.13-.16-.13-.29.14-.34.27-.48.03-.04.12-.05.13-.08.05-.33.2-.33.43-.15.05.04.12.02.11-.05-.08-.59.39-.6.75-.73.29-.11.47-.35.58-.61.09-.21.23-.35.45-.39.15-.02.3-.01.31-.22,0-.05.04-.09.08-.07.3.1.56-.19.85-.09-.24.3-.61.43-.91.66-.66.51-1.31,1.02-1.94,1.57-.74.66-1.44,1.35-2.09,2.1-1,1.15-1.87,2.39-2.62,3.72-.52.92-.96,1.88-1.4,2.85Z"/>
      <path class="cls-1" d="m51.04,30.77c.38-.16.59-.05.59.37,0,.22.14.35.24.49.08.11.24.06.33-.08.08-.13.09-.38.36-.28.04.01.08-.04.07-.08-.03-.32.22-.63.04-.96-.04-.08-.03-.18-.03-.28,0-.11.09-.16.2-.15.11.01.18.06.14.19-.03.09-.04.18.06.21.12.03.07-.1.11-.14.07-.08.14-.16.23-.21.2-.11.29-.26.26-.48-.01-.09.02-.16.09-.22.25-.18.42-.47.73-.58.1-.04.19-.11.18-.23-.06-.45.15-.88.01-1.34-.07-.22.09-.35.32-.31.18.03.35.03.52-.02.15-.05.16-.14.15-.26-.01-.14-.11-.13-.21-.13-.18,0-.36,0-.53,0-.12,0-.2-.04-.21-.17.26,0,.52-.03.78-.02.4.01.6.37.38.71-.41.62-.83,1.23-1.24,1.85-.58.86-1.16,1.73-1.74,2.59-.14.21-.28.43-.43.63-.18.25-.54.26-.72,0-.24-.35-.51-.69-.71-1.07Z"/>
      <path class="cls-1" d="m51.81,16.2s-.09.04-.14.07c-.03-.31-.46-.27-.51-.61-.03-.2-.16-.45-.39-.61-.18-.12-.04-.39-.08-.59-.05-.23-.11-.42-.36-.45-.14-.02-.19-.03-.16-.2.05-.29-.11-.54-.33-.69-.13-.09-.16-.16-.18-.29-.02-.16-.07-.3-.29-.27-.1.02-.24-.02-.22-.11.08-.34-.29-.52-.28-.82,0-.04-.02-.08-.05-.1-.18-.14-.24-.44-.13-.66.49.59.9,1.23,1.31,1.88.57.91,1.08,1.86,1.54,2.84.1.21.19.42.28.63Z"/>
      <path class="cls-1" d="m53.7,22.62c-.27.04-.54-.06-.81-.07-.13,0-.18-.09-.18-.21,0-.18,0-.36,0-.53,0-.14.03-.22.2-.16.17.06.28-.05.29-.19.04-.44,0-.89-.25-1.24-.18-.26-.06-.54-.19-.79-.14-.26-.17-.58-.07-.88.24.5.34,1.04.49,1.57.23.82.41,1.66.52,2.51Z"/>
      <path class="cls-1" d="m48.61,26.1c-.01.14.03.28-.05.42-.08.15.07.16.16.18.49.12.56.2.59.71,0,.07-.03.17.04.2.51.21.16.61.21.92-.33-.39-.58-.84-.87-1.26-.13-.18-.26-.36-.37-.56-.16-.29-.05-.5.3-.61Z"/>
      <path class="cls-1" d="m14.59,12.23c.02.14.15.31-.13.35-.04,0-.06.1-.09.15-.05.09-.12.25-.17.24-.42-.03-.52.39-.8.55-.08.04-.11.08-.1.19.02.17.06.38-.27.3-.18-.04-.27.23-.17.55-.13-.09-.24,0-.37-.03-.13-.03-.14.09-.15.18-.01.34-.12.4-.47.28.35-.56.82-1.02,1.28-1.48.3-.3.63-.58.93-.89.15-.16.33-.28.5-.4Z"/>
      <path class="cls-1" d="m.28,23.51c.08.34.06.69.03,1.03-.07.65-.16,1.3-.09,1.96.02.17-.1.3-.09.47.02.67.08,1.33.15,1.99.02.21-.01.36-.14.51-.07-.02-.06-.08-.06-.13-.02-1.17-.11-2.34-.04-3.5.05-.7.09-1.41.15-2.11,0-.08.06-.15.1-.22Z"/>
      <path class="cls-1" d="m7.89,29.78c.19.23.15.52.21.78.19.86.4,1.72.67,2.56.08.25.12.5.3.71.11.12-.02.28.1.43.12.16.11.39.36.49.18.07.05.24-.09.32-.4-.69-.63-1.44-.88-2.18-.26-.77-.44-1.56-.59-2.36-.05-.25-.12-.5-.09-.76Zm1.52,5.02s0,.03,0,.05c0,0,.02-.01.02-.02,0,0,0-.02-.01-.03Z"/>
      <path class="cls-1" d="m40.58,13.24c-.27.03-.86-.31-.97-.57-.06-.13-.06-.29-.29-.2-.17.07-.19-.11-.23-.23-.06-.16-.06-.3-.34-.28-.33.03-.15-.25-.14-.41.71.49,1.38,1.04,1.97,1.68Z"/>
      <path class="cls-1" d="m42.6,15.56c-.23.08-.4-.21-.41-.24-.04-.26-.52-.23-.38-.59.03-.07-.08-.12-.15-.14-.13-.04-.24-.09-.28-.22-.03-.1-.08-.11-.16-.06-.06.04-.11.01-.09-.05.1-.36-.23-.47-.4-.64-.13-.13-.18-.23-.15-.38.77.7,1.43,1.48,2.02,2.33Z"/>
      <path class="cls-1" d="m11.26,16.33s-.05.07-.09.09c-.28.14-.47.31-.47.69,0,.37-.15.45-.56.48.22-.45.47-.88.79-1.27.01.01.02.02.03.03,0-.01-.02-.02-.03-.04.2-.35.44-.68.7-.99-.01.16-.08.33-.09.45-.02.26-.34.31-.28.56,0,0,0,0,0,0Z"/>
      <path class="cls-1" d="m36.75,10.31c-.01.13-.09.2-.21.15-.2-.08-.41-.12-.53-.36-.09-.17-.37-.17-.58-.15-.08,0-.16.04-.27.02.11-.13.22-.27.07-.43.54.19,1.01.52,1.53.78Z"/>
      <path class="cls-1" d="m40.54,40.88c.02-.28-.03-.6.39-.64.12-.01.15-.1.15-.2,0-.28.16-.36.41-.32.05,0,.1,0,.16,0-.36.4-.71.8-1.11,1.16Z"/>
      <path class="cls-1" d="m41.11,8.54c.35.08.65.25.95.44.2.12.34.26.2.51-.4-.29-.79-.6-1.15-.95Z"/>
      <path class="cls-1" d="m43.46,16.9c-.02.11-.1.18-.19.15-.1-.03-.03-.12-.02-.18,0-.04.01-.11,0-.11-.2-.1-.18-.36-.37-.48-.05-.03-.35-.06-.08-.25.03-.02-.03-.11-.09-.14-.14-.08-.12-.2-.1-.33.3.31.49.7.75,1.04.06.09.16.17.12.3Z"/>
      <path class="cls-1" d="m9.5,35.2c.08-.04.16-.09.3-.17-.19.35-.1.57.16.78.07.06.2.19.13.35,0,.02,0,.06,0,.06.37.06.08.36.19.52-.28-.5-.63-.97-.78-1.54Z"/>
      <path class="cls-1" d="m42.69,38.4c-.24-.18-.08-.34.06-.43.18-.11.27-.25.34-.44.09-.22.21-.47.5-.52-.25.5-.58.94-.9,1.38Z"/>
      <path class="cls-1" d="m36.16,44.11c.02-.16-.08-.37.26-.33.13.02.33-.12.43-.31.15-.29.24-.28.45-.03-.34.3-.75.46-1.14.67Z"/>
      <path class="cls-1" d="m45.29,33.32c0-.15.01-.29-.05-.45-.18-.44-.08-.56.4-.57-.09.35-.12.72-.35,1.01Z"/>
      <path class="cls-1" d="m50.13,24.06c.23.21.33.81.17,1.08-.03.05-.05.11-.08.17-.12-.41-.21-.82-.09-1.25Z"/>
      <path class="cls-1" d="m48.62,10.79c-.17.17-.2-.11-.34-.11-.21-.01-.47-.61-.41-.83.3.27.53.61.76.94Z"/>
      <path class="cls-1" d="m38.26,42.79c-.13-.34-.09-.42.26-.49.18-.04.36-.08.55-.12-.24.24-.51.44-.8.61Z"/>
      <path class="cls-1" d="m34.78,44.8c0-.27.21-.36.41-.39.27-.04.47-.33.78-.23-.35.29-.8.4-1.19.61Z"/>
      <path class="cls-1" d="m29.94,46.15c0-.16.13-.26.23-.24.36.08.71-.04,1.06-.03.03,0,.06,0,.09,0-.1.21-.33.12-.49.16-.29.07-.59.14-.9.1Z"/>
      <path class="cls-1" d="m21.51,8.48c-.07.22-.29.22-.43.32-.3.22-.61.05-.9.16.15-.13.33-.15.51-.19.06.05.05,0,.06-.04.25-.09.51-.17.76-.26Z"/>
      <path class="cls-1" d="m.14,29.66c.09,0,.17.01.18.13.01.44-.02.87.06,1.31,0,.02-.03.05-.05.08-.14-.13-.07-.32-.1-.48-.07-.33-.06-.69-.08-1.03Z"/>
      <path class="cls-1" d="m31.57,45.88c.33-.21.61-.56,1.07-.31-.33.18-.71.22-1.07.31Z"/>
      <path class="cls-1" d="m4.67,42.24c.11.03.21.05.33.01.14-.04.28,0,.3.17.02.16-.13.12-.22.13-.08.01-.1.06-.11.12-.12-.14-.24-.26-.3-.44Z"/>
      <path class="cls-1" d="m33.52,45.26c.01-.22.08-.36.36-.33.15.02.3-.04.46.02-.25.17-.52.29-.82.32Z"/>
      <path class="cls-1" d="m35.1,9.47c-.09.11-.19.08-.31.02-.19-.1-.37-.22-.6-.2-.15.01-.17-.08-.16-.2.4,0,.72.24,1.07.38Z"/>
      <path class="cls-1" d="m40.38,8.02s.06-.06.07-.06c.15.07.33.08.45.16.09.05.21.23.17.4-.23-.17-.46-.33-.69-.5Z"/>
      <path class="cls-1" d="m7.94,24.01c.16.03.11.16.11.25,0,.24-.07.45-.24.63-.03-.3,0-.6.13-.88Z"/>
      <path class="cls-1" d="m49.76,22.3s.05,0,.06.02c.14.4.29.8.2,1.24-.13-.41-.2-.83-.25-1.26Z"/>
      <path class="cls-1" d="m45.02,19.98c-.29-.09-.47-.51-.36-.83.17.26.28.54.36.83Z"/>
      <path class="cls-1" d="m7.74,25.95s.08.02.08.03c.01.33.04.66-.12.97-.04-.34-.02-.67.04-1.01Z"/>
      <path class="cls-1" d="m50.66,30.21c.41-.06.43-.03.37.55-.12-.18-.25-.37-.37-.55Z"/>
      <path class="cls-1" d="m37.55,10.8c-.09.19-.25.17-.39.1-.18-.08-.12-.24-.05-.37.15.09.29.18.44.27Z"/>
      <path class="cls-1" d="m47.64,9.56c-.43-.02-.51-.11-.47-.52.21.13.33.33.47.52Z"/>
      <path class="cls-1" d="m49.66,28.67c.32-.05.37.18.4.41.01.07,0,.14,0,.22-.17-.18-.29-.4-.4-.62Z"/>
      <path class="cls-1" d="m27.93,7.78c0,.09-.05.14-.14.11-.16-.06-.32-.05-.48,0-.16.05-.2-.05-.19-.19.28-.03.55-.04.82.08Z"/>
      <path class="cls-1" d="m18.74,9.55c-.04.3-.32.45-.57.3.17-.13.37-.21.57-.3Z"/>
      <path class="cls-1" d="m45.91,31.23c-.14-.14.02-.35-.14-.51-.05-.04.15-.11.26-.12-.07.2-.02.43-.11.62Z"/>
      <path class="cls-1" d="m16.54,10.8c-.13.42-.15.43-.51.3.15-.13.31-.25.51-.3Z"/>
      <path class="cls-1" d="m40.13,41.24c0-.4.08-.46.4-.35-.12.13-.23.28-.4.35Z"/>
      <path class="cls-1" d="m1.33,35.45c.23-.05.22.23.4.26-.06.09-.23.03-.22.18-.16-.11-.15-.28-.18-.44Z"/>
      <path class="cls-1" d="m50.23,25.51c.36.11.22.34.15.56h0c-.05,0-.11,0-.16-.01,0-.18,0-.37.01-.55Z"/>
      <path class="cls-1" d="m50.34,29.7c.27-.09.28-.09.3.5-.12-.15-.24-.31-.3-.5Z"/>
      <path class="cls-1" d="m39.56,41.74c-.01-.09.06-.17.03-.26-.05-.15.1-.13.17-.15.14-.04.1.08.11.15-.09.11-.17.22-.31.26Z"/>
      <path class="cls-1" d="m39.75,7.59c.19-.14.38,0,.44.32-.17-.07-.3-.2-.44-.32Z"/>
      <path class="cls-1" d="m7.7,27.21c.18.22.12.46.03.69-.07-.23-.06-.46-.03-.69Z"/>
      <path class="cls-1" d="m44.16,18.09c-.22-.07-.44-.14-.25-.44.16.1.18.29.25.44Z"/>
      <path class="cls-1" d="m17.42,10.24c.03.33-.04.37-.38.24.08-.15.25-.16.38-.24Z"/>
      <path class="cls-1" d="m43.83,36.6c-.06-.03-.18-.04-.11-.13.09-.12.12-.32.35-.27-.05.15-.09.31-.24.4Z"/>
      <path class="cls-1" d="m37.67,42.99c.15-.14.34-.19.54-.18-.13.15-.3.25-.48.34,0-.06,0-.12-.06-.16Z"/>
      <path class="cls-1" d="m38.06,11.23c-.25.04-.34-.11-.39-.32.19.03.33.13.39.32Z"/>
      <path class="cls-1" d="m22.96,8.1c-.18.23-.43.21-.69.19.2-.15.46-.12.69-.19Z"/>
      <path class="cls-1" d="m10.29,36.74c.34.03.35.28.34.53-.16-.15-.23-.35-.34-.53Z"/>
      <path class="cls-1" d="m31.33,8.21c-.2.15-.4,0-.61-.01-.09,0,.04-.07.04-.12.19.03.39.05.57.13Z"/>
      <path class="cls-1" d="m52.45,17.9c-.26-.1-.24-.29-.18-.5.13.14.15.33.18.5Z"/>
      <path class="cls-1" d="m42.62,9.8c.22.03.42.09.4.37-.15-.1-.29-.22-.4-.37Z"/>
      <path class="cls-1" d="m8.07,23.25c.09.22.04.4-.13.56-.01-.2.02-.39.13-.56Z"/>
      <path class="cls-1" d="m23.52,7.98c-.08.27-.26.2-.44.12.14-.08.27-.15.44-.12Z"/>
      <path class="cls-1" d="m42.2,39.03c-.05-.23-.05-.43.29-.37-.1.12-.19.25-.29.37Z"/>
      <path class="cls-1" d="m44.48,18.71c-.25.01-.3-.1-.19-.38.1.11.15.24.19.38Z"/>
      <path class="cls-1" d="m7.8,25.13c.07.18.17.36-.06.5,0-.17-.07-.35.06-.5Z"/>
      <path class="cls-1" d="m53.83,23.31c-.26-.12-.18-.31-.11-.51.04.17.07.34.11.51Z"/>
      <path class="cls-1" d="m30.01,7.96c-.17-.05-.37.23-.51-.06.17.01.35-.08.51.06Z"/>
      <path class="cls-1" d="m46.29,28.84c-.2-.17-.2-.33,0-.5,0,.17,0,.34,0,.5Z"/>
      <path class="cls-1" d="m28.69,7.82c-.16.1-.32.17-.45-.04.15.02.31-.11.45.04Z"/>
      <path class="cls-1" d="m50.06,29.29c.15.09.32.18.28.4-.09-.13-.24-.23-.28-.4Z"/>
      <path class="cls-1" d="m9.37,19.22c-.04.14.12.37-.19.38,0-.16.05-.29.19-.38Z"/>
      <path class="cls-1" d="m46.35,27.96c-.17-.18-.17-.29.02-.44.04.15.03.29-.02.44Z"/>
      <path class="cls-1" d="m33.15,8.71c-.05.42-.23-.09-.28.01,0,0,.05-.04.09-.08.06.03.15-.02.19.07Z"/>
      <path class="cls-1" d="m9.12,19.73c-.06.14.11.39-.18.44.03-.16.06-.32.18-.44Z"/>
      <path class="cls-1" d="m46.03,30.48c-.08-.12-.13-.24.06-.31.01.11.05.23-.06.31Z"/>
      <path class="cls-1" d="m50.01,23.62c.08.02.21-.04.23.08.02.12-.1.1-.17.11-.1-.04-.06-.12-.05-.19Z"/>
      <path class="cls-1" d="m47.86,9.85c-.19,0-.3-.07-.21-.28.08.08.19.15.21.28Z"/>
      <path class="cls-1" d="m43.65,36.96c-.16-.21,0-.27.16-.31-.05.1-.11.21-.16.31Z"/>
      <path class="cls-1" d="m32.27,8.46c-.16.13-.27.09-.32-.11.12,0,.22.04.32.11Z"/>
      <path class="cls-1" d="m39.06,42.18c0-.17,0-.33.24-.2-.03.13-.17.12-.24.2Z"/>
      <path class="cls-1" d="m45.46,21.23c-.2-.05-.23-.16-.11-.32.07.1.12.2.11.32Z"/>
      <path class="cls-1" d="m45.97,23.25c-.19-.08-.15-.19-.05-.32.1.09.04.21.05.32Z"/>
      <path class="cls-1" d="m45.59,21.61c-.22-.04-.19-.18-.11-.32.06.1.11.2.11.32Z"/>
      <path class="cls-1" d="m7.74,28.4c.19.1.19.21,0,.31,0-.1,0-.21,0-.31Z"/>
      <path class="cls-1" d="m42.33,9.54c.16-.01.29,0,.25.22-.09-.06-.18-.12-.25-.22Z"/>
      <path class="cls-1" d="m26.48,7.71c0,.1-.07.15-.15.17-.09.02-.09-.06-.1-.12.07-.11.16-.07.26-.05Z"/>
      <path class="cls-1" d="m29.5,46.21c0-.06-.02-.15.05-.16.1-.03.17.03.22.13-.08.04-.17.07-.26.04Z"/>
      <path class="cls-1" d="m37.55,43.3c.03-.11-.07-.27.13-.3,0,.06.01.12.02.17-.03.07-.06.12-.14.13Z"/>
      <path class="cls-1" d="m23.94,53.87c.18-.05.38-.18.51.08-.18.04-.35,0-.51-.08Z"/>
      <path class="cls-1" d="m51.95,16.58c-.07,0-.15.02-.17-.07-.02-.08.03-.1.1-.12.03.06.09.11.08.19Z"/>
      <path class="cls-1" d="m44.41,35.51c-.1-.16-.02-.22.13-.25-.01.1-.01.21-.13.25Z"/>
      <path class="cls-1" d="m45.86,22.68c-.22-.04-.1-.16-.07-.26.1.07.04.17.07.26Z"/>
      <path class="cls-1" d="m53.91,24.25c-.09-.05-.09-.11-.02-.18.05.06.06.12.02.18Z"/>
      <path class="cls-1" d="m29.43,7.9c-.08,0-.18.02-.25-.05.09-.01.18-.04.25.05Z"/>
      <path class="cls-1" d="m26.1,7.78s0,.11-.08.09c-.02,0-.03-.06-.05-.09.04,0,.08,0,.13,0Z"/>
      <path class="cls-1" d="m44.28,35.76c-.09-.1-.02-.11.06-.13,0,.05,0,.11-.06.13Z"/>
      <path class="cls-1" d="m46.36,26.39c-.1-.02-.16-.04-.05-.13.08.02.07.07.05.13Z"/>
      <path class="cls-1" d="m37.69,43.17c0-.06-.01-.12-.02-.17.06.04.06.1.06.16,0,0-.02.01-.02.01h-.02Z"/>
      <path class="cls-1" d="m34.66,44.82s.01-.06.02-.09c.01.02.03.05.04.07-.02,0-.04,0-.06.01Z"/>
      <path class="cls-1" d="m18.87,9.49l-.06.05s.02-.06.06-.05Z"/>
      <path class="cls-1" d="m20.75,8.74s0,.09-.06.04c.02-.01.04-.03.06-.04Z"/>
      <path class="cls-1" d="m45.65,21.86s-.02-.03-.02-.04c0,0,.01-.01.02-.02,0,.02,0,.04,0,.06Z"/>
      <path class="cls-1" d="m21.7,8.48s-.04.03-.06,0c.02,0,.04,0,.06,0Z"/>
      <path class="cls-1" d="m7.89,29.67s.04.01.05.02c-.02,0-.03.02-.05.03-.01-.02-.01-.03,0-.05Z"/>
      <path class="cls-1" d="m31.45,8.23s-.04.03-.06,0c.02,0,.04,0,.06,0Z"/>
      <path class="cls-1" d="m45.66,32.24s.03-.04.05-.06c.01.04-.01.06-.05.06Z"/>
      <path class="cls-1" d="m3.38,30.58c-.07-.31-.03-.55-.04-.79,0-.05.02-.1.08-.11.05,0,.09.02.09.06,0,.26.09.53-.13.84Z"/>
      <path class="cls-1" d="m17.71,2.33c.06-.01.12-.02.17-.04.13-.04.25-.09.38,0,0,0,0,.07-.02.08-.13.08-.27.16-.43.09-.05-.02-.13-.04-.1-.14Z"/>
      <path class="cls-1" d="m48.48,10.97c-.08.12-.16.06-.27.08.09-.11.15-.16.27-.08Z"/>
      <path class="cls-1" d="m43.07,9.63s-.05.04-.08.05c-.01,0-.03-.04-.05-.06.02-.02.05-.04.07-.05.03-.01.05,0,.06.05Z"/>
      <path class="cls-1" d="m28.95.31s-.03.04-.05.04c-.04,0-.08.02-.1-.03.02,0,.03-.02.05-.02.03,0,.06,0,.1.02Z"/>
      <path class="cls-1" d="m43.51,10.13s-.02.04-.03.06c-.02-.02-.05-.04-.06-.06,0,0,.01-.03.02-.05.02.02.05.04.07.05Z"/>
      <path class="cls-1" d="m53.69,25.79s.04.01.05.02c0,.01-.01.03-.02.05-.02,0-.04-.01-.05-.02,0-.01.01-.03.02-.05Z"/>
      <path class="cls-1" d="m4.27,13.52s-.03-.02-.04-.03c0,0,0-.02.01-.02.02,0,.03,0,.05,0,0,.02-.02.03-.03.05Z"/>
      <path class="cls-1" d="m50.38,26.08s.02,0,.03.01c0,0-.02,0-.03-.01,0,0,0,0,0,0Z"/>
      <path class="cls-1" d="m27.01,43.67c-.56.08-1.08-.11-1.62-.21-.68-.13-1.34-.32-2-.51-.98-.29-1.92-.71-2.82-1.18-1.01-.52-1.95-1.16-2.86-1.84-.66-.49-1.27-1.05-1.83-1.63-.81-.84-1.61-1.7-2.24-2.71-.47-.75-.95-1.5-1.37-2.27-.28-.52-.46-1.09-.69-1.64-.37-.88-.6-1.8-.83-2.71-.25-.98-.3-1.98-.13-3,.14-.82.31-1.64.57-2.42.24-.74.53-1.46.88-2.17.43-.88.85-1.76,1.42-2.56.54-.76,1.11-1.51,1.74-2.21.35-.39.69-.78,1.05-1.14.41-.41.88-.77,1.33-1.13.7-.56,1.46-1.08,2.25-1.51.78-.43,1.58-.84,2.43-1.15.53-.19,1.05-.45,1.58-.57.77-.17,1.5-.54,2.31-.48.24.02.43-.13.67-.14.75-.03,1.47.13,2.19.29.97.23,1.95.48,2.87.87.97.41,1.92.85,2.81,1.43.52.33,1.04.66,1.53,1.02.42.31.83.64,1.21.99.36.34.79.62,1.1,1.01.4.5.85.95,1.24,1.45.54.69,1,1.44,1.5,2.15.22.32.36.7.55,1.05.24.46.48.92.67,1.4.33.84.59,1.71.84,2.58.24.85.37,1.7.36,2.58,0,.31-.02.62-.15.92-.02.05-.03.1-.03.15.02.92-.37,1.74-.63,2.59-.32,1.06-.79,2.06-1.33,3.02-.32.56-.62,1.13-1,1.65-.77,1.06-1.62,2.04-2.54,2.96-.78.78-1.65,1.44-2.55,2.06-1.19.83-2.47,1.46-3.83,1.98-.93.35-1.87.65-2.84.86-.59.13-1.18.26-1.8.17Zm4.06-25.22c0-1.14.03-2.55-.06-3.97-.03-.46-.15-.88-.43-1.25-.31-.41-.77-.48-1.23-.48-1.51,0-3.02,0-4.53,0-.68,0-1.13.3-1.42.88-.29.57-.23,1.21-.24,1.81-.04,2.17-.01,4.34-.02,6.51,0,.46-.09.88-.45,1.25-.34.35-.51.84-.55,1.34-.02.35-.12.66-.39.89-.65.54-1.33,1.04-1.92,1.65-.24.24-.54.43-.79.66-.5.45-1.05.87-1.49,1.37-.35.4-.77.7-1.17,1.01-.54.42-.94.89-.9,1.61.01.24,0,.47,0,.71,0,1.17,0,2.35,0,3.52,0,.27-.04.55.04.8.2.62.51,1.11,1.45,1.09,1.6-.02,3.21,0,4.81,0,.14,0,.27,0,.4-.06.72-.31,1.28-.86,1.84-1.37.67-.6,1.32-1.22,2-1.81.72-.62,1.35-1.33,2.08-1.94.46-.39.94-.65,1.56-.61.64.04,1.15-.26,1.61-.65.59-.51.82-1.19.83-1.95,0-1.49,0-2.98,0-4.46,0-.16.08-.34.04-.49-.15-.55-.31-1.1-.77-1.51-.11-.09-.2-.22-.21-.37-.03-.33-.06-.67-.06-1,0-.96,0-1.93,0-3.16Z"/>
      <path class="cls-1" d="m23.32,8.5c.21-.21.38-.14.62-.15-.22.18-.39.08-.62.15Z"/>
      <path class="cls-1" d="m10.37,17.74s-.06.04-.09.05c0-.02-.02-.04-.02-.05,0-.02.01-.04.02-.05.02.01.05.03.09.05Z"/>
      <path class="cls-1" d="m26.96,7.86s-.04.02-.05.02c-.01,0-.02-.03-.02-.05.02,0,.04-.02.05-.02.01,0,.02.03.02.05Z"/>
      <path class="cls-1" d="m17.89,10.24s-.02.02-.04.03c0,0-.02,0-.02-.01,0-.02,0-.03,0-.05.02.01.03.02.05.04Z"/>
      <path class="cls-1" d="m42.46,38.63s-.03-.05-.05-.08c.01,0,.02-.01.03-.02,0,.03.02.06.02.09,0,0,0,0,0,0Z"/>
      <path class="cls-1" d="m11.26,16.33s.02,0,.03.01c0,0-.02,0-.03-.01,0,0,0,0,0,0Z"/>
      <path class="cls-1" d="m9.41,34.8s.01.02.01.03c0,0-.01.01-.02.02,0-.02,0-.03,0-.05Z"/>
      <path class="cls-1" d="m10.93,16.31s.02.02.03.04c-.01-.01-.02-.02-.03-.03,0,0,0,0,0,0Z"/>
      <path class="cls-1" d="m31.07,18.45c0,1.23,0,2.2,0,3.16,0,.33.04.67.06,1,.01.15.11.28.21.37.46.4.62.95.77,1.51.04.15-.04.33-.04.49,0,1.49,0,2.98,0,4.46,0,.76-.24,1.44-.83,1.95-.46.4-.96.7-1.61.65-.61-.04-1.09.22-1.56.61-.73.61-1.36,1.31-2.08,1.94-.68.59-1.33,1.21-2,1.81-.56.51-1.12,1.06-1.84,1.37-.13.05-.26.06-.4.06-1.6,0-3.21-.02-4.81,0-.94.01-1.25-.48-1.45-1.09-.08-.25-.04-.53-.04-.8,0-1.17,0-2.35,0-3.52,0-.24.01-.47,0-.71-.04-.72.36-1.19.9-1.61.4-.31.82-.61,1.17-1.01.44-.5.98-.92,1.49-1.37.26-.23.55-.41.79-.66.59-.61,1.27-1.11,1.92-1.65.27-.23.37-.54.39-.89.03-.5.21-.99.55-1.34.36-.37.45-.79.45-1.25,0-2.17-.02-4.34.02-6.51.01-.6-.05-1.24.24-1.81.29-.58.74-.89,1.42-.88,1.51.02,3.02,0,4.53,0,.47,0,.92.07,1.23.48.28.37.4.79.43,1.25.09,1.41.05,2.82.06,3.97Zm-6.12,12.2h0c.15.03.28.04.2-.18.37-.34.74-.68,1.12-1.03.06-.05.12-.1.19-.07.36.16.72-.03,1.08.02.09.23.31.22.46.18.18-.04.16-.25.17-.42h0s.04-.04.06-.05c.04-.03.08-.05.12-.08.48.16.54.12.64-.36.02-.09.03-.18.05-.27.09-.23.25-.43.27-.68.21-.15.22-.34.12-.56,0-.09,0-.17,0-.26.07-.12.12-.24-.06-.31-.03-.12-.11-.24-.08-.38.13-.31.03-.47-.3-.51-.15-.25-.41-.39-.58-.62.08-.6.04-1.2.02-1.8-.05-1.5-.03-3.01,0-4.52,0-.36.05-.72,0-1.08-.04-.22-.04-.47,0-.69.07-.28.05-.51-.14-.72v-.13c.06-.15.05-.31-.03-.44-.04-.07-.13.08-.21.06l-.09-.16c0-.1-.03-.15-.14-.13h.02s-.01,0-.01,0c.05-.21,0-.4-.25-.39-.14,0-.31,0-.43.12-.12,0-.25,0-.37,0-.06-.11-.15,0-.22-.04-.29-.18-.43-.02-.53.24-.03.07-.06.13-.12.17-.38.27-.41.41-.18.83,0,.04,0,.08-.01.12-.21.05-.13.22-.13.33,0,2.52,0,5.04,0,7.56,0,.24-.11.47-.04.71-.49.32-.72.8-.88,1.33-.02.08-.02.19-.1.25-.28.11-.14.44-.32.62-.13.12.23.14.14.31h0c-.31-.03-.56.02-.67.37-.04.13-.18.26-.29.26-.39-.02-.44.3-.6.52-.16.22-.29.5-.66.41-.14-.03-.23.07-.21.23.02.11.05.22.08.33v-.03s0,.03,0,.03c-.12-.04-.2-.09-.33.06-.16.18-.36.35-.56.51-.06.04-.17-.18-.19.04-.01.12.1.14.18.19-.02.09-.08.13-.17.13q-.52-.02-.52.5c-.15.18-.31.32-.54.39-.02,0-.01-.06-.05-.02.01.01.03.02.04.03.04.05.02.08-.03.1-.28-.03-.51,0-.43.37-.01.02-.03.03-.04.05-.09-.14-.26-.18-.31-.03-.09.3-.3.29-.53.29,0-.03-.02-.05-.02-.08,0,0-.02.01-.02.02.02.02.03.04.05.07.02.15-.08.25-.16.35-.1.12-.16.24-.11.39h0c-.11.02-.23.03-.27.16-.02.07.05.1.12.1-.14.33-.17.66-.07,1-.06.2-.19.43.21.37h0c.02.37.14.47.49.39.25.13.51.17.79.07.13-.05.27-.09.4-.13.01.09.04.14.14.08.19-.13.35-.28.36-.52.24-.21.47-.42.71-.62.26.05.57-.23.55-.5,0-.05.03-.07.08-.07.3.05.47-.08.49-.39.02-.02.04-.04.06-.07.21,0,.41-.01.56-.17.1-.11.14-.3.36-.15.08.06.09-.04.1-.12.06-.37.2-.48.62-.48-.1-.15-.02-.33-.11-.48l.02-.02c.35.14.58-.05.58-.48.09-.12.2-.22.33-.29.1,0,.19,0,.17-.15Zm-7.6,2.41c.04.09-.08.27.11.29.15.01.17-.15.21-.27.02-.07.04-.14.06-.21.03-.08.08-.15-.04-.21-.1-.05-.17-.05-.26.03-.11.1-.08.23-.09.37Zm11.95-8.49c-.16,0-.29.06-.28.17.01.19.17.33.34.36.14.02.2-.12.19-.26,0-.18-.11-.26-.25-.27Zm-11.16,10.36s-.04-.03-.05-.02c-.01,0-.02.03-.02.05.02,0,.04.03.05.02.01,0,.02-.03.02-.05Zm4.51-6.23s0,.02,0,.03c0,0,.01,0,.02,0,0,0,0-.02,0-.03,0,0-.01,0-.02,0Z"/>
      <path class="cls-1" d="m28.43,25.08c-.24-.15-.11-.4-.11-.58,0-2.51.01-5.02,0-7.53,0-.23-.17-.47-.01-.7.19.21.21.44.14.72-.05.22-.05.46,0,.69.06.36.01.72,0,1.08-.03,1.51-.04,3.01,0,4.52.02.6.06,1.2-.02,1.8Z"/>
      <path class="cls-1" d="m25.73,16.52c.05.19.02.37.02.56,0,2.52,0,5.04,0,7.57,0,.18.06.39-.19.48-.07-.24.04-.47.04-.71-.01-2.52,0-5.04,0-7.56,0-.12-.08-.29.13-.33Z"/>
      <path class="cls-1" d="m24.39,27.64c-.76.73-1.55,1.43-2.35,2.11-.03-.11-.06-.22-.08-.33-.02-.16.07-.26.21-.23.37.08.5-.19.66-.41.16-.22.21-.54.6-.52.11,0,.25-.12.29-.26.11-.35.37-.39.67-.36Z"/>
      <path class="cls-1" d="m22.33,32.99c.46-.52,1-.95,1.53-1.4.09.15,0,.33.11.48-.41,0-.55.1-.62.48-.01.08-.02.18-.1.12-.22-.16-.26.04-.36.15-.15.16-.35.18-.56.17Z"/>
      <path class="cls-1" d="m26.8,15.21c-.38.18-.76.36-.96.78-.06.14,0,.29-.09.41-.23-.42-.2-.56.18-.83.06-.05.1-.1.12-.17.1-.25.24-.41.53-.24.07.04.17-.07.22.04Z"/>
      <path class="cls-1" d="m19.39,32.1c-.33.38-.74.68-1.12,1.02-.05-.16.02-.28.11-.39.08-.1.19-.2.16-.35h0c.23,0,.44,0,.53-.3.05-.15.21-.11.31.03Z"/>
      <path class="cls-1" d="m22.04,29.75c-.3.27-.56.57-.91.79-.08-.05-.19-.07-.18-.19.02-.21.14,0,.19-.04.2-.16.4-.32.56-.51.13-.15.21-.1.33-.06Z"/>
      <path class="cls-1" d="m17.36,33.06c0-.14-.02-.27.09-.37.08-.08.16-.08.26-.03.11.06.07.13.04.21-.03.07-.04.14-.06.21-.04.12-.06.29-.21.27-.19-.02-.07-.2-.11-.29Z"/>
      <path class="cls-1" d="m28.36,29.03c.27-.17.44-.45.69-.64-.02.09-.03.18-.05.27-.1.49-.16.52-.64.36Z"/>
      <path class="cls-1" d="m29.31,24.57c.14.01.24.1.25.27,0,.14-.06.29-.19.26-.17-.03-.32-.17-.34-.36,0-.12.13-.18.28-.17Z"/>
      <path class="cls-1" d="m27.55,29.4c.21-.08.42-.16.63-.24,0,.16,0,.37-.17.42-.15.04-.37.05-.46-.18Z"/>
      <path class="cls-1" d="m20.96,30.67c-.12.23-.34.34-.52.5q0-.52.52-.5Z"/>
      <path class="cls-1" d="m27.84,15.47c-.06-.03-.11-.06-.17-.09-.02-.03-.04-.04-.06,0-.14-.07-.31-.07-.44-.17.12-.12.29-.11.43-.12.25-.01.29.17.25.39Z"/>
      <path class="cls-1" d="m23.87,31.56c.17-.2.35-.36.58-.48,0,.43-.24.62-.58.48Z"/>
      <path class="cls-1" d="m21.15,34c.14-.22.36-.34.55-.5.02.27-.29.55-.55.5Z"/>
      <path class="cls-1" d="m19.94,35.07c.12-.2.34-.29.5-.44-.02.25-.17.4-.36.52-.1.06-.13,0-.14-.08Z"/>
      <path class="cls-1" d="m21.78,33.44c.12-.18.28-.31.49-.39-.02.31-.18.43-.49.39Z"/>
      <path class="cls-1" d="m19.87,31.67c-.12.15-.24.3-.43.37-.08-.38.15-.41.43-.37Z"/>
      <path class="cls-1" d="m18.26,34.74c.16.13.33.26.49.39-.35.08-.48-.02-.49-.39Z"/>
      <path class="cls-1" d="m29.31,26.2c-.16-.13-.16-.36-.3-.51.33.03.43.2.3.51Z"/>
      <path class="cls-1" d="m28.3,16.14c-.14-.09-.16-.25-.24-.38.09.02.17-.13.21-.06.07.13.09.29.03.44Z"/>
      <path class="cls-1" d="m29.32,27.71c.04-.19.01-.39.12-.56.1.22.08.41-.12.56Z"/>
      <path class="cls-1" d="m18.05,34.37c.07.12.14.24.21.37-.39.06-.27-.17-.21-.37Z"/>
      <path class="cls-1" d="m18.27,33.13c-.05.08-.1.17-.15.25-.06,0-.14-.03-.12-.1.04-.13.16-.14.27-.14Z"/>
      <path class="cls-1" d="m29.44,26.89c-.12-.09-.05-.21-.06-.31.18.07.13.19.06.31Z"/>
      <path class="cls-1" d="m24.95,30.65c.04-.09.12-.14.2-.18.07.22-.06.21-.2.18Z"/>
      <path class="cls-1" d="m24.78,30.79c.04-.07.09-.12.17-.15.02.14-.07.14-.17.15Z"/>
      <path class="cls-1" d="m27.98,15.6c-.06-.03-.12-.06-.14-.13.11-.02.15.03.14.13Z"/>
      <path class="cls-1" d="m18.15,34.93s-.01.04-.02.05c-.01,0-.03-.01-.05-.02,0-.02.01-.04.02-.05.01,0,.03.01.05.02Z"/>
      <path class="cls-1" d="m18.55,32.37s-.03-.04-.05-.07c0,0,.02-.01.02-.02,0,.03.02.05.02.08,0,0,0,0,0,0Z"/>
      <path class="cls-1" d="m22.67,28.7s.02,0,.02,0c0,0,0,.02,0,.03,0,0-.02,0-.02,0,0,0,0-.02,0-.03Z"/>
      <path class="cls-1" d="m28.18,29.16s.02-.06.06-.05c-.02.02-.04.03-.06.05Z"/>
      <path class="cls-1" d="m19.9,31.58s-.03-.02-.04-.03c.04-.04.03.02.05.02,0,0-.01.01-.01.01Z"/>
      <path class="cls-1" d="m27.61,15.37s.04-.03.06,0c-.02,0-.04,0-.06,0Z"/>
    </g>
  </g>
</svg>