<?xml version="1.0" encoding="UTF-8"?>
<svg id="Capa_2" data-name="Capa 2" xmlns="http://www.w3.org/2000/svg" viewBox="0 0 47.05 54">
  <defs>
    <style>
      .cls-1 {
        fill: #b91c1c;
      }
    </style>
  </defs>
  <g id="Capa_1-2" data-name="Capa 1">
    <g>
      <path class="cls-1" d="m25.59,49.67h-15.87c-2.97,0-5.39-2.42-5.39-5.39V9.71c0-2.97,2.42-5.39,5.39-5.39h15.87c1.19,0,2.16-.97,2.16-2.16s-.97-2.16-2.16-2.16h-15.87C4.36,0,0,4.36,0,9.71v34.57c0,5.36,4.36,9.71,9.71,9.71h15.87c1.19,0,2.16-.97,2.16-2.16s-.97-2.16-2.16-2.16Z"/>
      <path class="cls-1" d="m47.05,27h0s0-.02,0-.03c0-.58-.22-1.12-.63-1.53l-10.22-10.22c-.84-.84-2.22-.84-3.06,0-.41.41-.63.95-.63,1.53s.22,1.12.63,1.53l6.59,6.59h-21.73c-1.19,0-2.16.97-2.16,2.16s.97,2.16,2.16,2.16h21.67l-6.53,6.53c-.41.41-.63.95-.63,1.53s.22,1.12.63,1.53c.42.42.98.63,1.53.63s1.11-.21,1.53-.63l10.22-10.22s0,0,0-.01c.02-.02.04-.04.06-.07,0-.01.02-.02.03-.03l.02-.02s.02-.02.03-.03c.01-.01.02-.03.03-.04v-.02s.02-.01.03-.02c.01-.02.03-.04.04-.06l.02-.03s.03-.04.04-.06h0s0-.02.01-.03c.01-.02.02-.04.03-.06h0s.01-.02.01-.03c.01-.02.02-.04.03-.06h0s.01-.03.02-.04c0-.02.02-.03.02-.05h0s.01-.03.02-.05c0-.01.01-.03.02-.04h0s.01-.04.02-.06c0-.01,0-.02.01-.04,0-.02.01-.04.02-.06v-.04s.02-.04.03-.07v-.03s.02-.05.02-.07c0,0,0-.02,0-.03h0s0-.05.01-.08c0,0,0-.02,0-.03v-.02s0-.03,0-.05c0-.01,0-.03,0-.04v-.02s0-.02,0-.04c0-.04,0-.07,0-.11,0,0,0-.02,0-.03h0Z"/>
    </g>
  </g>
</svg>