<?xml version="1.0" encoding="UTF-8"?>
<svg id="Capa_2" data-name="Capa 2" xmlns="http://www.w3.org/2000/svg" viewBox="0 0 54.47 52.35">
  <defs>
    <style>
      .cls-1 {
        fill: #b91c1c;
      }
    </style>
  </defs>
  <g id="Capa_1-2" data-name="Capa 1">
    <path class="cls-1" d="m27.26,0C34.95,0,39.19.02,39.97.03c1.32.03,2.01.83,2.07,2.42.04,1.09.03,8.57-.03,22.43,0,.23.19.42.42.42,1.7.03,4.95.07,9.74.14,1.9.03,2.26,1.51,2.27,3.22.03,4.36.03,11.43.01,21.2,0,1.67-.87,2.5-2.59,2.49-1.65,0-9.87,0-24.64-.02-14.77,0-22.99-.01-24.64-.01S0,51.48,0,49.83c0-9.78.01-16.84.05-21.2.01-1.7.37-3.18,2.27-3.22,4.8-.06,8.05-.1,9.74-.13.23,0,.42-.19.42-.42-.03-13.86-.03-21.33,0-22.43C12.54.84,13.23.04,14.55.02c.79-.01,5.03-.02,12.71-.01m0,25.34c7.13,0,10.92-.03,11.39-.06.17-.01.3-.15.3-.33V3.36c0-.12-.09-.21-.21-.21h-5.58c-.12,0-.21.09-.21.21-.02,2.45-.03,5.78-.02,9.97,0,.71-.52,1.31-1.21,1.38-1.31.15-3.26-1.71-4.32-2.63-.03-.02-.08-.03-.16-.03-.08,0-.14.01-.16.03-1.05.92-3,2.79-4.31,2.64-.69-.07-1.21-.67-1.21-1.38,0-4.21-.01-7.53-.04-9.97,0-.12-.1-.21-.21-.21h-5.58c-.12,0-.21.1-.21.22l.04,21.59c0,.17.13.32.3.33.47.04,4.26.05,11.39.05m-.06-16.57c.51,0,1.28.44,2.3,1.35.12.11.32.02.32-.14l-.06-6.52c0-.13-.1-.23-.23-.23-.31-.01-1.09-.01-2.36,0-1.27,0-2.06.01-2.37.03-.12,0-.22.11-.22.23v6.52c0,.17.19.25.31.14,1.02-.91,1.79-1.37,2.31-1.37m-12.67,40.41c7.22-.03,10.86-.05,10.91-.05.24,0,.44-.21.44-.44l-.07-20.03c0-.17-.14-.3-.3-.3h-5.02c-.17.02-.31.15-.31.32,0,3.13.01,6.22.02,9.27,0,1.18-.63,1.79-1.9,1.84-.23,0-.46-.06-.64-.19-1.14-.78-2.12-1.53-2.92-2.23-.04-.03-.14-.05-.3-.05-.13,0-.21.02-.24.05-.8.71-1.77,1.45-2.9,2.25-.19.13-.42.2-.64.19-1.27-.03-1.91-.64-1.92-1.82-.02-3.06-.04-6.15-.06-9.27,0-.17-.14-.31-.31-.3l-5.02.02c-.17,0-.3.14-.3.3l.1,20.03c0,.24.2.44.44.44.05,0,3.69-.01,10.92-.04m-.1-15.11c.51,0,1.28.47,2.31,1.39.12.11.32.02.32-.14v-6.58c0-.13-.1-.23-.23-.24-.31-.01-1.11-.02-2.39-.03-1.27,0-2.07,0-2.38,0-.13,0-.23.1-.23.23l-.07,6.58c0,.16.19.25.32.14,1.04-.91,1.81-1.36,2.35-1.36m25.7,15.09c7.14,0,10.73,0,10.79,0,.24,0,.44-.2.44-.44v-19.79c0-.16-.14-.3-.3-.3h-4.96c-.17,0-.3.14-.3.3,0,3.09,0,6.14-.01,9.16,0,1.16-.63,1.77-1.88,1.81-.23,0-.45-.06-.64-.19-1.13-.78-2.08-1.52-2.87-2.21-.04-.03-.14-.04-.29-.04-.13,0-.21.01-.24.04-.8.69-1.75,1.43-2.87,2.22-.19.13-.41.19-.64.19-1.25-.04-1.88-.64-1.88-1.81-.01-3.02-.02-6.08-.03-9.16,0-.17-.14-.3-.3-.3h-4.96c-.17,0-.3.14-.3.3l.03,19.79c0,.24.19.44.44.44.05,0,3.65,0,10.79,0m-.02-15.09c.51,0,1.28.44,2.29,1.34.12.1.31.02.31-.14l-.06-6.44c0-.12-.1-.22-.23-.23-.3-.01-1.08-.01-2.33,0-1.25,0-2.03.01-2.33.03-.12,0-.22.1-.22.23v6.43c0,.16.18.24.3.14,1-.89,1.76-1.35,2.26-1.35h0Z"/>
  </g>
</svg>