<?xml version="1.0" encoding="UTF-8"?>
<svg id="Capa_2" data-name="Capa 2" xmlns="http://www.w3.org/2000/svg" viewBox="0 0 39.64 54">
  <defs>
    <style>
      .cls-1 {
        fill: #b91c1c;
      }
    </style>
  </defs>
  <g id="Capa_1-2" data-name="Capa 1">
    <g>
      <path class="cls-1" d="m19.82,5.74c.95,0,1.73-.77,1.73-1.73,0-.36-.11-.69-.29-.96-.31-.46-.84-.76-1.43-.76s-1.12.3-1.43.76c-.19.28-.29.61-.29.96,0,.95.77,1.73,1.73,1.73Z"/>
      <path class="cls-1" d="m34.24,5.79h-3.84v3.23c0,1.46-1.18,2.64-2.64,2.64h-15.88c-1.46,0-2.64-1.18-2.64-2.64v-3.23h-3.84c-2.98,0-5.4,2.42-5.4,5.4v37.41c0,2.98,2.42,5.4,5.4,5.4h28.83c2.98,0,5.4-2.42,5.4-5.4V11.19c0-2.98-2.42-5.4-5.4-5.4ZM14.51,39.96l-3.89,3.89c-.22.22-.51.33-.8.33s-.58-.11-.8-.33l-2.11-2.11c-.4-.4-.4-1.06,0-1.46.2-.2.45-.3.73-.3s.54.11.73.3l1.46,1.46,3.23-3.23c.2-.2.45-.3.73-.3s.54.11.73.3c.4.4.4,1.06,0,1.46Zm0-9.1l-3.89,3.89c-.22.22-.51.33-.8.33s-.58-.11-.8-.33l-2.11-2.11c-.4-.4-.4-1.06,0-1.46.2-.2.45-.3.73-.3s.54.11.73.3l1.46,1.46,3.23-3.23c.2-.2.45-.3.73-.3s.54.11.73.3c.4.4.4,1.06,0,1.46Zm0-9.1l-3.89,3.89c-.22.22-.51.33-.8.33s-.58-.11-.8-.33l-2.11-2.11c-.4-.4-.4-1.06,0-1.46.2-.2.45-.3.73-.3s.54.11.73.3l1.46,1.46,3.23-3.23c.2-.2.45-.3.73-.3s.54.11.73.3c.4.4.4,1.06,0,1.46Zm17.49,20.47h-12.59c-.57,0-1.03-.46-1.03-1.03s.46-1.03,1.03-1.03h12.59c.57,0,1.03.46,1.03,1.03s-.46,1.03-1.03,1.03Zm1.03-10.14c0,.57-.46,1.03-1.03,1.03h-12.59c-.57,0-1.03-.46-1.03-1.03h0c0-.57.46-1.03,1.03-1.03h12.59c.57,0,1.03.46,1.03,1.03h0Zm0-9.1c0,.57-.46,1.03-1.03,1.03h-12.59c-.57,0-1.03-.46-1.03-1.03h0c0-.57.46-1.03,1.03-1.03h12.59c.57,0,1.03.46,1.03,1.03h0Z"/>
      <path class="cls-1" d="m12.73,9.86h14.17c.88,0,1.6-.72,1.6-1.6v-3.61c0-.88-.72-1.6-1.6-1.6h-3.18c-.43-1.75-2.01-3.05-3.89-3.05s-3.46,1.3-3.89,3.05h-3.2c-.88,0-1.6.72-1.6,1.6v3.61c0,.88.72,1.6,1.6,1.6Zm5.66-6.81c.31-.46.84-.76,1.43-.76s1.12.3,1.43.76c.19.28.29.61.29.96,0,.95-.77,1.73-1.73,1.73s-1.73-.77-1.73-1.73c0-.36.11-.69.29-.96Z"/>
    </g>
  </g>
</svg>