<?xml version="1.0" encoding="UTF-8"?>
<svg id="Capa_2" data-name="Capa 2" xmlns="http://www.w3.org/2000/svg" viewBox="0 0 53.42 54">
  <defs>
    <style>
      .cls-1 {
        fill: #b91c1c;
      }
    </style>
  </defs>
  <g id="Capa_1-2" data-name="Capa 1">
    <path class="cls-1" d="m40.64,54H12.77c-.97,0-1.39-.75-1.34-1.56.26-3.52,2.92-6.34,6.49-6.37l4.63-.04V13.77c-.44-.77-.8-1.41-1.03-2.28-4.35-.67-6.78,2.8-10.91,3.7l5.94,14.58c.77.27,1.2.83,1.15,1.62-.33,4.68-4.19,8.25-8.73,8.3C4.33,39.75.32,36.16,0,31.41c-.05-.82.4-1.37,1.17-1.66l5.87-14.56c-2.4-.55-4.96-2.77-3.63-4.07.63-.61,1.38-.36,1.95.27,2.49,2.81,6.15,1.08,9.24-.72,2.2-1.28,4.52-2.03,7.08-1.7l.76-1.8c.39-.93.08-2.05.1-3.08C22.6,1.79,24.45.02,26.65,0c2.31-.02,4.16,1.86,4.15,4.26,0,.98-.32,2.05.07,2.91l.81,1.78c2.17-.2,4.21.24,6.17,1.23l4.48,2.27c2.09,1.06,4.48.44,5.99-1.35.45-.53,1.36-.36,1.72.09,1.07,1.32-1.31,3.4-3.71,4.02l5.91,14.47c.37.37,1.21.59,1.2,1.33-.07,4.81-4.04,8.67-8.7,8.7-4.84.04-9-3.83-9-8.73,0-.69.83-.91,1.13-1.26l5.88-14.44c-3.97-1.03-6.7-4.44-10.95-3.77-.24.86-.56,1.52-1.01,2.3v32.25s5.06.04,5.06.04c3.5.02,6.11,3.29,6.08,6.75,0,.6-.51,1.16-1.28,1.16ZM28.18,5.41c.12-.6.07-.99.03-1.46-.09-.9-.75-1.47-1.55-1.44-.71.02-1.39.48-1.51,1.31-.08.55-.09,1.02.02,1.59,1.05-.3,1.9-.3,3.01,0Zm1.15,4.94c0-1.46-1.19-2.65-2.65-2.65s-2.65,1.19-2.65,2.65,1.19,2.65,2.65,2.65,2.65-1.19,2.65-2.65Zm-1.11,5h-3.12v30.72h3.12V15.35Zm-14.39,14.48l-4.99-12.31-4.95,12.34,9.94-.03Zm35.69-.02l-4.96-12.32-4.98,12.38,9.94-.06Zm-34.48,2.6H2.69c.79,3.07,3.4,4.82,6.29,4.77,2.75-.04,5.37-1.76,6.06-4.77Zm35.69-.01l-12.32.02c.8,3.03,3.42,4.8,6.31,4.77,2.78-.03,5.33-1.9,6.01-4.79Zm-11.63,19.09c-.47-1.91-2-2.83-3.74-2.92l-17.63.04c-1.69,0-3.08,1.32-3.46,2.88h24.84Z"/>
  </g>
</svg>