<?xml version="1.0" encoding="UTF-8"?>
<svg id="Capa_2" data-name="Capa 2" xmlns="http://www.w3.org/2000/svg" viewBox="0 0 57.79 52.56">
  <defs>
    <style>
      .cls-1 {
        fill: #b91c1c;
      }
    </style>
  </defs>
  <g id="Capa_1-2" data-name="Capa 1">
    <g>
      <path class="cls-1" d="m56.29,52.06l-14.35-3.9c-.23-.06-.48-.05-.71.03l-12.09,4.31c-.26.09-.54.09-.8,0l-11.98-4.23c-.23-.08-.47-.09-.7-.03l-14.16,3.75c-.98.26-1.81-.74-1.38-1.66l4.66-9.93c.39-.84,1.14-1.45,2.04-1.67l11.32-2.76c.21-.05.43-.04.63.02l9.62,2.98c.23.07.48.07.71,0l9.72-3.03c.21-.07.43-.07.64-.02l11.51,2.88c.89.22,1.63.84,2.02,1.67l4.67,9.95c.43.92-.41,1.92-1.39,1.65Z"/>
      <g>
        <path class="cls-1" d="m28.9,36.64c-.73,0-1.41-.36-1.82-.97-1.1-1.63-3.91-5.91-6.39-10.38-3.16-5.73-4.7-9.77-4.7-12.38C15.99,5.79,21.78,0,28.9,0s12.91,5.79,12.91,12.91c0,2.6-1.54,6.65-4.7,12.38-2.47,4.48-5.29,8.75-6.39,10.38-.41.61-1.09.97-1.82.97Zm0-28.7c-2.63,0-4.76,2.14-4.76,4.76s2.14,4.76,4.76,4.76,4.76-2.14,4.76-4.76-2.14-4.76-4.76-4.76Z"/>
        <path class="cls-1" d="m28.9,1.44c6.34,0,11.47,5.14,11.47,11.47,0,5.44-8.45,18.39-10.85,21.96-.15.22-.39.33-.63.33s-.48-.11-.63-.33c-2.4-3.57-10.85-16.52-10.85-21.96,0-6.34,5.14-11.47,11.47-11.47m0,17.46c3.42,0,6.2-2.78,6.2-6.2s-2.78-6.2-6.2-6.2-6.2,2.78-6.2,6.2c0,3.42,2.78,6.2,6.2,6.2"/>
      </g>
    </g>
  </g>
</svg>