<?xml version="1.0" encoding="UTF-8"?>
<svg id="Capa_2" data-name="Capa 2" xmlns="http://www.w3.org/2000/svg" viewBox="0 0 58.01 54">
  <defs>
    <style>
      .cls-1 {
        fill: #b91c1c;
      }
    </style>
  </defs>
  <g id="Capa_1-2" data-name="Capa 1">
    <g>
      <path class="cls-1" d="m53.78,4.04c-2.33,0-4.23,1.9-4.23,4.23,0,.59.12,1.15.34,1.66l-9.97,6.79c-.73-.59-1.65-.94-2.66-.94-.93,0-1.79.3-2.48.81l-10.32-10.32s0,0,0,0c.33-.6.52-1.3.52-2.03,0-2.33-1.9-4.23-4.23-4.23s-4.23,1.9-4.23,4.23c0,.59.12,1.15.34,1.66l-10.48,10.48c-.63-.37-1.37-.59-2.15-.59-2.33,0-4.23,1.9-4.23,4.23s1.9,4.23,4.23,4.23,4.23-1.9,4.23-4.23c0-.59-.12-1.16-.34-1.67l10.47-10.47c.63.38,1.37.59,2.16.59.64,0,1.25-.14,1.8-.4.02.02.04.05.07.07l10.62,10.62c-.13.4-.19.83-.19,1.27,0,2.33,1.9,4.23,4.23,4.23s4.23-1.9,4.23-4.23c0-.38-.05-.74-.14-1.09l10.28-7.01c.63.37,1.36.59,2.15.59,2.33,0,4.23-1.9,4.23-4.23,0-2.33-1.9-4.23-4.23-4.23Z"/>
      <g>
        <path class="cls-1" d="m5.67,29.34h0c-3.05,0-5.52,2.47-5.52,5.52v13.62c0,3.05,2.47,5.52,5.52,5.52h0c3.05,0,5.52-2.47,5.52-5.52v-13.62c0-3.05-2.47-5.52-5.52-5.52Z"/>
        <path class="cls-1" d="m21.23,16.14h0c-3.05,0-5.52,2.47-5.52,5.52v26.82c0,3.05,2.47,5.52,5.52,5.52h0c3.05,0,5.52-2.47,5.52-5.52v-26.82c0-3.05-2.47-5.52-5.52-5.52Z"/>
        <path class="cls-1" d="m36.78,29.34h0c-3.05,0-5.52,2.47-5.52,5.52v13.62c0,3.05,2.47,5.52,5.52,5.52h0c3.05,0,5.52-2.47,5.52-5.52v-13.62c0-3.05-2.47-5.52-5.52-5.52Z"/>
        <path class="cls-1" d="m52.34,20.02h0c-3.05,0-5.52,2.47-5.52,5.52v22.93c0,3.05,2.47,5.52,5.52,5.52h0c3.05,0,5.52-2.47,5.52-5.52v-22.93c0-3.05-2.47-5.52-5.52-5.52Z"/>
      </g>
    </g>
  </g>
</svg>