<?xml version="1.0" encoding="UTF-8"?>
<svg id="Capa_2" data-name="Capa 2" xmlns="http://www.w3.org/2000/svg" viewBox="0 0 56.18 41.01">
  <defs>
    <style>
      .cls-1 {
        fill: #b91c1c;
      }
    </style>
  </defs>
  <g id="Capa_1-2" data-name="Capa 1">
    <path class="cls-1" d="m36.8,7.25c0,.13.11.23.24.23,3.94,0,6.95,0,9.02,0,.66,0,1.31.42,1.94,1.22,2.15,2.75,4.66,6.14,7.52,10.19.4.57.61,1.24.61,1.94,0,2.39.02,5.49.05,9.32.02,1.96-.22,3.31-.7,4.05-1.58,2.39-3.76,1.77-6.2,1.81-.21,0-.4.14-.47.33-2.12,5.81-10.18,6.5-12.16.06-.07-.22-.28-.37-.51-.37h-16.76c-.23,0-.43.14-.51.35-2.06,5.85-9.42,6.32-11.88.47-.2-.48-.69-.77-1.22-.71C.98,36.65-.04,34.04.04,29.52c.03-1.63.03-8.39-.01-20.29C.01,4.29-.64.04,5.23.02,20.12,0,28.86,0,31.43.04c2.09.03,3.83.07,4.87,1.89.77,1.34.44,3.74.5,5.33m-3.19-3.28c0-.44-.35-.79-.79-.79H3.95c-.44,0-.79.35-.79.79v18.48c0,.44.35.79.79.79h28.88c.44,0,.79-.35.79-.79V3.97m17.6,14.32l-5.48-7.36c-.18-.24-.46-.38-.76-.37l-7.8.14c-.23,0-.41.19-.4.42,0,.36,0,4.36,0,12,0,2.57-1.84,3.38-4.28,3.36-4.78-.05-14.49-.04-29.13.03-.12,0-.21.1-.21.21v5.33c0,.35.23.66.55.78,1.76.62,2.99.37,3.69-.73.33-.52.61-.89.85-1.12,3.39-3.18,7.64-2.71,10.11,1.37.21.34.59.55.98.55l16.75-.06c.23,0,.44-.12.57-.31.44-.62.89-1.58,1.51-2.11,3.74-3.15,7.8-1.98,10.37,2.07.12.2.34.32.57.32h3.37c.32,0,.59-.26.59-.59v-10.06c0-.16-.14-.3-.3-.3h-10.35c-.86,0-1.52-.77-1.39-1.61v-.04c.14-.88.9-1.54,1.79-1.54l8.2.02c.2,0,.32-.23.2-.39m-5.72,16.46c0-1.61-1.31-2.93-2.93-2.93s-2.93,1.31-2.93,2.93,1.31,2.93,2.93,2.93,2.93-1.31,2.93-2.93m-29.91.21c0-1.55-1.26-2.81-2.81-2.81s-2.81,1.26-2.81,2.81,1.26,2.81,2.81,2.81,2.81-1.26,2.81-2.81h0Z"/>
  </g>
</svg>